GrahamSans-Regular.ufo
<glyph name="exclam" format="2">
  <advance width="260"/>
  <unicode hex="0021"/>
  <outline>
    <contour>
      <point x="90" y="0" type="line"/>
      <point x="170" y="0" type="line"/>
      <point x="170" y="100" type="line"/>
      <point x="90" y="100" type="line"/>
    </contour>
    <contour>
      <point x="110" y="170" type="line"/>
      <point x="150" y="170" type="line"/>
      <point x="170" y="310" type="line"/>
      <point x="170" y="720" type="line"/>
      <point x="90" y="720" type="line"/>
      <point x="90" y="310" type="line"/>
    </contour>
  </outline>
</glyph>
<glyph name="quotedbl" format="2">
  <advance width="420"/>
  <unicode hex="0022"/>
  <outline>
    <contour>
      <point x="80" y="750" type="line"/>
      <point x="80" y="560" type="line"/>
      <point x="115" y="470" type="line"/>
      <point x="125" y="471" type="line"/>
      <point x="160" y="560" type="line"/>
      <point x="160" y="750" type="line"/>
    </contour>
    <contour>
      <point x="260" y="750" type="line"/>
      <point x="260" y="560" type="line"/>
      <point x="295" y="470" type="line"/>
      <point x="305" y="470" type="line"/>
      <point x="340" y="560" type="line"/>
      <point x="340" y="750" type="line"/>
    </contour>
  </outline>
</glyph>
<glyph name="numbersign" format="2">
  <advance width="630"/>
  <unicode hex="0023"/>
  <outline>
    <contour>
      <point x="121" y="50" type="line"/>
      <point x="191" y="50" type="line"/>
      <point x="214" y="180" type="line"/>
      <point x="364" y="180" type="line"/>
      <point x="341" y="50" type="line"/>
      <point x="401" y="50" type="line"/>
      <point x="424" y="180" type="line"/>
      <point x="524" y="180" type="line"/>
      <point x="534" y="240" type="line"/>
      <point x="434" y="240" type="line"/>
      <point x="465" y="410" type="line"/>
      <point x="565" y="410" type="line"/>
      <point x="577" y="480" type="line"/>
      <point x="477" y="480" type="line"/>
      <point x="498" y="600" type="line"/>
      <point x="438" y="600" type="line"/>
      <point x="417" y="480" type="line"/>
      <point x="267" y="480" type="line"/>
      <point x="288" y="600" type="line"/>
      <point x="218" y="600" type="line"/>
      <point x="197" y="480" type="line"/>
      <point x="97" y="480" type="line"/>
      <point x="85" y="410" type="line"/>
      <point x="185" y="410" type="line"/>
      <point x="154" y="240" type="line"/>
      <point x="54" y="240" type="line"/>
      <point x="44" y="180" type="line"/>
      <point x="144" y="180" type="line"/>
    </contour>
    <contour>
      <point x="224" y="240" type="line"/>
      <point x="255" y="410" type="line"/>
      <point x="405" y="410" type="line"/>
      <point x="374" y="240" type="line"/>
    </contour>
  </outline>
</glyph>
<glyph name="dollar" format="2">
  <advance width="610"/>
  <unicode hex="0024"/>
  <outline>
    <contour>
      <point x="269" y="-115" type="line"/>
      <point x="340" y="-115" type="line"/>
      <point x="335" y="-8" type="line"/>
      <point x="464" y="6"/>
      <point x="547" y="92"/>
      <point x="547" y="199" type="curve" smooth="yes"/>
      <point x="547" y="324"/>
      <point x="442" y="376"/>
      <point x="327" y="403" type="curve" smooth="yes"/>
      <point x="214" y="429"/>
      <point x="159" y="457"/>
      <point x="159" y="536" type="curve" smooth="yes"/>
      <point x="159" y="603"/>
      <point x="202" y="662"/>
      <point x="307" y="662" type="curve" smooth="yes"/>
      <point x="389" y="662"/>
      <point x="435" y="614"/>
      <point x="461" y="571" type="curve"/>
      <point x="521" y="616" type="line"/>
      <point x="498" y="659"/>
      <point x="441" y="718"/>
      <point x="335" y="728" type="curve"/>
      <point x="340" y="835" type="line"/>
      <point x="269" y="835" type="line"/>
      <point x="274" y="728" type="line"/>
      <point x="155" y="717"/>
      <point x="77" y="643"/>
      <point x="77" y="532" type="curve" smooth="yes"/>
      <point x="77" y="417"/>
      <point x="175" y="361"/>
      <point x="288" y="336" type="curve" smooth="yes"/>
      <point x="382" y="315"/>
      <point x="466" y="291"/>
      <point x="466" y="190" type="curve" smooth="yes"/>
      <point x="466" y="113"/>
      <point x="395" y="58"/>
      <point x="304" y="58" type="curve" smooth="yes"/>
      <point x="207" y="58"/>
      <point x="139" y="117"/>
      <point x="110" y="170" type="curve"/>
      <point x="49" y="127" type="line"/>
      <point x="71" y="81"/>
      <point x="146" y="1"/>
      <point x="274" y="-9" type="curve"/>
    </contour>
  </outline>
</glyph>
<glyph name="ampersand" format="2">
  <advance width="690"/>
  <unicode hex="0026"/>
  <outline>
    <contour>
      <point x="330" y="760" type="curve" smooth="yes"/>
      <point x="200" y="760"/>
      <point x="135" y="665"/>
      <point x="135" y="565" type="curve" smooth="yes"/>
      <point x="135" y="475"/>
      <point x="189" y="412"/>
      <point x="220" y="410" type="curve"/>
      <point x="134" y="394"/>
      <point x="60" y="315"/>
      <point x="60" y="215" type="curve" smooth="yes"/>
      <point x="60" y="85"/>
      <point x="145" y="-10"/>
      <point x="285" y="-10" type="curve" smooth="yes"/>
      <point x="375" y="-10"/>
      <point x="441" y="45"/>
      <point x="466" y="104" type="curve"/>
      <point x="492" y="28"/>
      <point x="564" y="-2"/>
      <point x="610" y="-10" type="curve"/>
      <point x="640" y="47" type="line"/>
      <point x="603" y="58"/>
      <point x="519" y="86"/>
      <point x="519" y="175" type="curve" smooth="yes"/>
      <point x="519" y="370" type="line"/>
      <point x="640" y="370" type="line"/>
      <point x="640" y="430" type="line"/>
      <point x="470" y="430" type="line"/>
      <point x="486" y="436"/>
      <point x="525" y="505"/>
      <point x="525" y="565" type="curve" smooth="yes"/>
      <point x="525" y="665"/>
      <point x="450" y="760"/>
    </contour>
    <contour>
      <point x="330" y="700" type="curve" smooth="yes"/>
      <point x="400" y="700"/>
      <point x="455" y="640"/>
      <point x="455" y="565" type="curve" smooth="yes"/>
      <point x="455" y="490"/>
      <point x="400" y="430"/>
      <point x="330" y="430" type="curve" smooth="yes"/>
      <point x="260" y="430"/>
      <point x="205" y="490"/>
      <point x="205" y="565" type="curve" smooth="yes"/>
      <point x="205" y="640"/>
      <point x="260" y="700"/>
    </contour>
    <contour>
      <point x="290" y="370" type="curve" smooth="yes"/>
      <point x="440" y="370" type="line"/>
      <point x="440" y="200" type="line"/>
      <point x="440" y="130"/>
      <point x="380" y="60"/>
      <point x="290" y="60" type="curve" smooth="yes"/>
      <point x="190" y="60"/>
      <point x="140" y="135"/>
      <point x="140" y="215" type="curve" smooth="yes"/>
      <point x="140" y="305"/>
      <point x="210" y="370"/>
    </contour>
  </outline>
</glyph>
<glyph name="quotesingle" format="2">
  <advance width="220"/>
  <unicode hex="0027"/>
  <outline>
    <contour>
      <point x="105" y="470" type="line"/>
      <point x="115" y="470" type="line"/>
      <point x="150" y="560" type="line"/>
      <point x="150" y="750" type="line"/>
      <point x="70" y="750" type="line"/>
      <point x="70" y="560" type="line"/>
    </contour>
  </outline>
</glyph>
<glyph name="parenleft" format="2">
  <advance width="290"/>
  <unicode hex="0028"/>
  <outline>
    <contour>
      <point x="220" y="-100" type="curve"/>
      <point x="270" y="-70" type="line"/>
      <point x="190" y="40"/>
      <point x="140" y="215"/>
      <point x="140" y="340" type="curve" smooth="yes"/>
      <point x="140" y="465"/>
      <point x="190" y="640"/>
      <point x="270" y="750" type="curve"/>
      <point x="220" y="780" type="line"/>
      <point x="150" y="700"/>
      <point x="70" y="525"/>
      <point x="70" y="340" type="curve" smooth="yes"/>
      <point x="70" y="155"/>
      <point x="150" y="-20"/>
    </contour>
  </outline>
</glyph>
<glyph name="parenright" format="2">
  <advance width="290"/>
  <unicode hex="0029"/>
  <outline>
    <contour>
      <point x="70" y="-100" type="line"/>
      <point x="140" y="-20"/>
      <point x="220" y="155"/>
      <point x="220" y="340" type="curve" smooth="yes"/>
      <point x="220" y="525"/>
      <point x="140" y="700"/>
      <point x="70" y="780" type="curve"/>
      <point x="20" y="750" type="line"/>
      <point x="100" y="640"/>
      <point x="150" y="465"/>
      <point x="150" y="340" type="curve" smooth="yes"/>
      <point x="150" y="215"/>
      <point x="100" y="40"/>
      <point x="20" y="-70" type="curve"/>
    </contour>
  </outline>
</glyph>
<glyph name="asterisk" format="2">
  <advance width="400"/>
  <unicode hex="002A"/>
  <outline>
    <contour>
      <point x="77" y="423" type="line"/>
      <point x="141" y="376" type="line"/>
      <point x="200" y="471" type="line"/>
      <point x="259" y="376" type="line"/>
      <point x="324" y="423" type="line"/>
      <point x="251" y="508" type="line"/>
      <point x="360" y="535" type="line"/>
      <point x="335" y="611" type="line"/>
      <point x="231" y="568" type="line"/>
      <point x="240" y="680" type="line"/>
      <point x="160" y="680" type="line"/>
      <point x="168" y="568" type="line"/>
      <point x="65" y="610" type="line"/>
      <point x="40" y="535" type="line"/>
      <point x="149" y="508" type="line"/>
    </contour>
  </outline>
</glyph>
<glyph name="plus" format="2">
  <advance width="460"/>
  <unicode hex="002B"/>
  <outline>
    <contour>
      <point x="195" y="110" type="line"/>
      <point x="255" y="110" type="line"/>
      <point x="255" y="275" type="line"/>
      <point x="410" y="275" type="line"/>
      <point x="410" y="335" type="line"/>
      <point x="255" y="335" type="line"/>
      <point x="255" y="500" type="line"/>
      <point x="195" y="500" type="line"/>
      <point x="195" y="335" type="line"/>
      <point x="50" y="335" type="line"/>
      <point x="50" y="275" type="line"/>
      <point x="195" y="275" type="line"/>
    </contour>
  </outline>
</glyph>
<glyph name="comma" format="2">
  <advance width="220"/>
  <unicode hex="002C"/>
  <outline>
    <contour>
      <point x="50" y="-120" type="line"/>
      <point x="60" y="-120" type="line"/>
      <point x="140" y="-30" type="line"/>
      <point x="160" y="100" type="line"/>
      <point x="60" y="100" type="line"/>
      <point x="60" y="0" type="line"/>
      <point x="90" y="-20" type="line"/>
    </contour>
  </outline>
</glyph>
<glyph name="slash" format="2">
  <advance width="370"/>
  <unicode hex="002F"/>
  <outline>
    <contour>
      <point x="5" y="-70" type="line"/>
      <point x="65" y="-70" type="line"/>
      <point x="365" y="750" type="line"/>
      <point x="305" y="750" type="line"/>
    </contour>
  </outline>
</glyph>
<glyph name="zero" format="2">
  <advance width="610"/>
  <unicode hex="0030"/>
  <outline>
    <contour>
      <point x="305" y="53" type="curve" smooth="yes"/>
      <point x="161" y="53"/>
      <point x="125" y="221"/>
      <point x="125" y="360" type="curve" smooth="yes"/>
      <point x="125" y="499"/>
      <point x="161" y="667"/>
      <point x="305" y="667" type="curve" smooth="yes"/>
      <point x="449" y="667"/>
      <point x="485" y="499"/>
      <point x="485" y="360" type="curve" smooth="yes"/>
      <point x="485" y="221"/>
      <point x="449" y="53"/>
    </contour>
    <contour>
      <point x="305" y="-10" type="curve" smooth="yes"/>
      <point x="469" y="-10"/>
      <point x="555" y="144"/>
      <point x="555" y="360" type="curve" smooth="yes"/>
      <point x="555" y="576"/>
      <point x="469" y="730"/>
      <point x="305" y="730" type="curve" smooth="yes"/>
      <point x="142" y="730"/>
      <point x="55" y="576"/>
      <point x="55" y="360" type="curve" smooth="yes"/>
      <point x="55" y="144"/>
      <point x="142" y="-10"/>
    </contour>
  </outline>
</glyph>
<glyph name="one" format="2">
  <advance width="610"/>
  <unicode hex="0031"/>
  <outline>
    <contour>
      <point x="307" y="0" type="line"/>
      <point x="379" y="0" type="line"/>
      <point x="379" y="720" type="line"/>
      <point x="307" y="720" type="line"/>
      <point x="154" y="585" type="line"/>
      <point x="192" y="528" type="line"/>
      <point x="296" y="622" type="line"/>
      <point x="307" y="632" type="line"/>
      <point x="307" y="622" type="line"/>
    </contour>
  </outline>
</glyph>
<glyph name="two" format="2">
  <advance width="610"/>
  <unicode hex="0032"/>
  <outline>
    <contour>
      <point x="72" y="0" type="line"/>
      <point x="552" y="0" type="line"/>
      <point x="552" y="62" type="line"/>
      <point x="154" y="62" type="line"/>
      <point x="154" y="158"/>
      <point x="211" y="222"/>
      <point x="341" y="283" type="curve" smooth="yes"/>
      <point x="454" y="337"/>
      <point x="547" y="392"/>
      <point x="547" y="520" type="curve" smooth="yes"/>
      <point x="547" y="626"/>
      <point x="471" y="730"/>
      <point x="312" y="730" type="curve" smooth="yes"/>
      <point x="149" y="730"/>
      <point x="87" y="619"/>
      <point x="72" y="542" type="curve"/>
      <point x="136" y="514" type="line"/>
      <point x="155" y="581"/>
      <point x="187" y="667"/>
      <point x="312" y="667" type="curve" smooth="yes"/>
      <point x="432" y="667"/>
      <point x="475" y="581"/>
      <point x="475" y="523" type="curve" smooth="yes"/>
      <point x="475" y="451"/>
      <point x="441" y="396"/>
      <point x="317" y="341" type="curve" smooth="yes"/>
      <point x="165" y="273"/>
      <point x="72" y="178"/>
      <point x="72" y="48" type="curve" smooth="yes"/>
    </contour>
  </outline>
</glyph>
<glyph name="three" format="2">
  <advance width="610"/>
  <unicode hex="0033"/>
  <outline>
    <contour>
      <point x="128" y="187" type="curve"/>
      <point x="60" y="158" type="line"/>
      <point x="80" y="91"/>
      <point x="137" y="-10"/>
      <point x="300" y="-10" type="curve" smooth="yes"/>
      <point x="464" y="-10"/>
      <point x="550" y="86"/>
      <point x="550" y="192" type="curve" smooth="yes"/>
      <point x="550" y="307"/>
      <point x="446" y="369"/>
      <point x="389" y="372" type="curve"/>
      <point x="442" y="378"/>
      <point x="535" y="434"/>
      <point x="535" y="538" type="curve" smooth="yes"/>
      <point x="535" y="624"/>
      <point x="464" y="730"/>
      <point x="300" y="730" type="curve" smooth="yes"/>
      <point x="137" y="730"/>
      <point x="80" y="629"/>
      <point x="60" y="542" type="curve"/>
      <point x="128" y="523" type="line"/>
      <point x="147" y="600"/>
      <point x="190" y="667"/>
      <point x="300" y="667" type="curve" smooth="yes"/>
      <point x="387" y="667"/>
      <point x="460" y="624"/>
      <point x="460" y="538" type="curve" smooth="yes"/>
      <point x="460" y="451"/>
      <point x="376" y="403"/>
      <point x="252" y="403" type="curve"/>
      <point x="252" y="336" type="line"/>
      <point x="372" y="336"/>
      <point x="475" y="299"/>
      <point x="475" y="192" type="curve" smooth="yes"/>
      <point x="475" y="106"/>
      <point x="401" y="53"/>
      <point x="300" y="53" type="curve" smooth="yes"/>
      <point x="190" y="53"/>
      <point x="147" y="120"/>
    </contour>
  </outline>
</glyph>
<glyph name="four" format="2">
  <advance width="610"/>
  <unicode hex="0034"/>
  <outline>
    <contour>
      <point x="65" y="211" type="line"/>
      <point x="395" y="211" type="line"/>
      <point x="395" y="0" type="line"/>
      <point x="467" y="0" type="line"/>
      <point x="467" y="211" type="line"/>
      <point x="565" y="211" type="line"/>
      <point x="565" y="274" type="line"/>
      <point x="467" y="274" type="line"/>
      <point x="467" y="720" type="line"/>
      <point x="395" y="720" type="line"/>
      <point x="65" y="278" type="line"/>
    </contour>
    <contour>
      <point x="143" y="274" type="line"/>
      <point x="373" y="584" type="line"/>
      <point x="395" y="614" type="line"/>
      <point x="395" y="584" type="line"/>
      <point x="395" y="274" type="line"/>
    </contour>
  </outline>
</glyph>
<glyph name="five" format="2">
  <advance width="610"/>
  <unicode hex="0035"/>
  <outline>
    <contour>
      <point x="65" y="163" type="line"/>
      <point x="82" y="96"/>
      <point x="152" y="-10"/>
      <point x="305" y="-10" type="curve" smooth="yes"/>
      <point x="459" y="-10"/>
      <point x="545" y="101"/>
      <point x="545" y="226" type="curve" smooth="yes"/>
      <point x="545" y="370"/>
      <point x="449" y="461"/>
      <point x="320" y="461" type="curve" smooth="yes"/>
      <point x="242" y="461"/>
      <point x="175" y="415"/>
      <point x="152" y="374" type="curve"/>
      <point x="181" y="653" type="line"/>
      <point x="515" y="653" type="line"/>
      <point x="515" y="720" type="line"/>
      <point x="113" y="720" type="line"/>
      <point x="75" y="331" type="line"/>
      <point x="142" y="302" type="line"/>
      <point x="171" y="341"/>
      <point x="219" y="398"/>
      <point x="305" y="398" type="curve" smooth="yes"/>
      <point x="400" y="398"/>
      <point x="470" y="331"/>
      <point x="470" y="226" type="curve" smooth="yes"/>
      <point x="470" y="130"/>
      <point x="401" y="53"/>
      <point x="305" y="53" type="curve" smooth="yes"/>
      <point x="209" y="53"/>
      <point x="152" y="125"/>
      <point x="137" y="182" type="curve"/>
    </contour>
  </outline>
</glyph>
<glyph name="six" format="2">
  <advance width="610"/>
  <unicode hex="0036"/>
  <outline>
    <contour>
      <point x="483" y="551" type="curve"/>
      <point x="538" y="586" type="line"/>
      <point x="521" y="631"/>
      <point x="467" y="730"/>
      <point x="317" y="730" type="curve" smooth="yes"/>
      <point x="159" y="730"/>
      <point x="60" y="605"/>
      <point x="60" y="360" type="curve" smooth="yes"/>
      <point x="60" y="115"/>
      <point x="162" y="-10"/>
      <point x="320" y="-10" type="curve" smooth="yes"/>
      <point x="464" y="-10"/>
      <point x="555" y="106"/>
      <point x="555" y="221" type="curve" smooth="yes"/>
      <point x="555" y="365"/>
      <point x="450" y="461"/>
      <point x="325" y="461" type="curve" smooth="yes"/>
      <point x="253" y="461"/>
      <point x="160" y="420"/>
      <point x="134" y="349" type="curve"/>
      <point x="134" y="551"/>
      <point x="197" y="667"/>
      <point x="317" y="667" type="curve" smooth="yes"/>
      <point x="419" y="667"/>
      <point x="458" y="604"/>
    </contour>
    <contour>
      <point x="320" y="53" type="curve" smooth="yes"/>
      <point x="219" y="53"/>
      <point x="143" y="140"/>
      <point x="143" y="227" type="curve" smooth="yes"/>
      <point x="143" y="323"/>
      <point x="224" y="398"/>
      <point x="320" y="398" type="curve" smooth="yes"/>
      <point x="416" y="398"/>
      <point x="480" y="317"/>
      <point x="480" y="221" type="curve" smooth="yes"/>
      <point x="480" y="125"/>
      <point x="416" y="53"/>
    </contour>
  </outline>
</glyph>
<glyph name="seven" format="2">
  <advance width="610"/>
  <unicode hex="0037"/>
  <outline>
    <contour>
      <point x="72" y="653" type="line"/>
      <point x="461" y="653" type="line"/>
      <point x="345" y="528"/>
      <point x="158" y="0"/>
      <point x="158" y="0" type="curve"/>
      <point x="245" y="0" type="line"/>
      <point x="245" y="0"/>
      <point x="427" y="518"/>
      <point x="533" y="643" type="curve"/>
      <point x="533" y="720" type="line"/>
      <point x="72" y="720" type="line"/>
    </contour>
  </outline>
</glyph>
<glyph name="eight" format="2">
  <advance width="610"/>
  <unicode hex="0038"/>
  <outline>
    <contour>
      <point x="200" y="374" type="curve"/>
      <point x="147" y="368"/>
      <point x="65" y="302"/>
      <point x="65" y="197" type="curve" smooth="yes"/>
      <point x="65" y="91"/>
      <point x="152" y="-10"/>
      <point x="305" y="-10" type="curve" smooth="yes"/>
      <point x="459" y="-10"/>
      <point x="545" y="91"/>
      <point x="545" y="197" type="curve" smooth="yes"/>
      <point x="545" y="302"/>
      <point x="454" y="369"/>
      <point x="401" y="374" type="curve"/>
      <point x="449" y="381"/>
      <point x="525" y="442"/>
      <point x="525" y="538" type="curve" smooth="yes"/>
      <point x="525" y="643"/>
      <point x="449" y="730"/>
      <point x="305" y="730" type="curve" smooth="yes"/>
      <point x="161" y="730"/>
      <point x="85" y="643"/>
      <point x="85" y="538" type="curve" smooth="yes"/>
      <point x="85" y="442"/>
      <point x="152" y="381"/>
    </contour>
    <contour>
      <point x="160" y="538" type="curve" smooth="yes"/>
      <point x="160" y="634"/>
      <point x="242" y="667"/>
      <point x="305" y="667" type="curve" smooth="yes"/>
      <point x="369" y="667"/>
      <point x="450" y="634"/>
      <point x="450" y="538" type="curve" smooth="yes"/>
      <point x="450" y="451"/>
      <point x="369" y="408"/>
      <point x="305" y="408" type="curve" smooth="yes"/>
      <point x="242" y="408"/>
      <point x="160" y="451"/>
    </contour>
    <contour>
      <point x="140" y="197" type="curve" smooth="yes"/>
      <point x="140" y="288"/>
      <point x="224" y="341"/>
      <point x="305" y="341" type="curve" smooth="yes"/>
      <point x="387" y="341"/>
      <point x="470" y="288"/>
      <point x="470" y="197" type="curve" smooth="yes"/>
      <point x="470" y="96"/>
      <point x="387" y="53"/>
      <point x="305" y="53" type="curve" smooth="yes"/>
      <point x="224" y="53"/>
      <point x="140" y="96"/>
    </contour>
  </outline>
</glyph>
<glyph name="nine" format="2">
  <advance width="610"/>
  <unicode hex="0039"/>
  <outline>
    <contour>
      <point x="67" y="134" type="line"/>
      <point x="84" y="89"/>
      <point x="138" y="-10"/>
      <point x="288" y="-10" type="curve" smooth="yes"/>
      <point x="446" y="-10"/>
      <point x="550" y="115"/>
      <point x="550" y="360" type="curve" smooth="yes"/>
      <point x="550" y="605"/>
      <point x="448" y="730"/>
      <point x="290" y="730" type="curve" smooth="yes"/>
      <point x="146" y="730"/>
      <point x="55" y="614"/>
      <point x="55" y="499" type="curve" smooth="yes"/>
      <point x="55" y="355"/>
      <point x="160" y="259"/>
      <point x="285" y="259" type="curve" smooth="yes"/>
      <point x="357" y="259"/>
      <point x="450" y="300"/>
      <point x="476" y="371" type="curve"/>
      <point x="476" y="169"/>
      <point x="408" y="53"/>
      <point x="288" y="53" type="curve" smooth="yes"/>
      <point x="186" y="53"/>
      <point x="147" y="116"/>
      <point x="122" y="169" type="curve"/>
    </contour>
    <contour>
      <point x="290" y="322" type="curve" smooth="yes"/>
      <point x="194" y="322"/>
      <point x="130" y="403"/>
      <point x="130" y="499" type="curve" smooth="yes"/>
      <point x="130" y="595"/>
      <point x="194" y="667"/>
      <point x="290" y="667" type="curve" smooth="yes"/>
      <point x="391" y="667"/>
      <point x="467" y="580"/>
      <point x="467" y="493" type="curve" smooth="yes"/>
      <point x="467" y="397"/>
      <point x="386" y="322"/>
    </contour>
  </outline>
</glyph>
<glyph name="colon" format="2">
  <advance width="280"/>
  <unicode hex="003A"/>
  <outline>
    <contour>
      <point x="80" y="0" type="line"/>
      <point x="170" y="0" type="line"/>
      <point x="170" y="100" type="line"/>
      <point x="80" y="100" type="line"/>
    </contour>
    <contour>
      <point x="80" y="300" type="line"/>
      <point x="170" y="300" type="line"/>
      <point x="170" y="400" type="line"/>
      <point x="80" y="400" type="line"/>
    </contour>
  </outline>
</glyph>
<glyph name="semicolon" format="2">
  <advance width="280"/>
  <unicode hex="003B"/>
  <outline>
    <contour>
      <point x="80" y="300" type="line"/>
      <point x="170" y="300" type="line"/>
      <point x="170" y="400" type="line"/>
      <point x="80" y="400" type="line"/>
    </contour>
    <contour>
      <point x="70" y="-120" type="line"/>
      <point x="80" y="-120" type="line"/>
      <point x="160" y="-30" type="line"/>
      <point x="180" y="100" type="line"/>
      <point x="80" y="100" type="line"/>
      <point x="80" y="0" type="line"/>
      <point x="110" y="-20" type="line"/>
    </contour>
  </outline>
</glyph>
<glyph name="less" format="2">
  <advance width="480"/>
  <unicode hex="003C"/>
  <outline>
    <contour>
      <point x="50" y="270" type="line"/>
      <point x="420" y="50" type="line"/>
      <point x="440" y="110" type="line"/>
      <point x="120" y="300" type="line"/>
      <point x="440" y="490" type="line"/>
      <point x="420" y="550" type="line"/>
      <point x="50" y="330" type="line"/>
    </contour>
  </outline>
</glyph>
<glyph name="equal" format="2">
  <advance width="460"/>
  <unicode hex="003D"/>
  <outline>
    <contour>
      <point x="70" y="350" type="line"/>
      <point x="390" y="350" type="line"/>
      <point x="390" y="410" type="line"/>
      <point x="70" y="410" type="line"/>
    </contour>
    <contour>
      <point x="70" y="210" type="line"/>
      <point x="390" y="210" type="line"/>
      <point x="390" y="270" type="line"/>
      <point x="70" y="270" type="line"/>
    </contour>
  </outline>
</glyph>
<glyph name="greater" format="2">
  <advance width="480"/>
  <unicode hex="003E"/>
  <outline>
    <contour>
      <point x="70" y="60" type="line"/>
      <point x="440" y="280" type="line"/>
      <point x="440" y="340" type="line"/>
      <point x="70" y="560" type="line"/>
      <point x="50" y="500" type="line"/>
      <point x="370" y="310" type="line"/>
      <point x="50" y="120" type="line"/>
    </contour>
  </outline>
</glyph>
<glyph name="question" format="2">
  <advance width="538"/>
  <unicode hex="003F"/>
  <outline>
    <contour>
      <point x="240" y="197" type="line"/>
      <point x="254" y="250"/>
      <point x="280" y="303"/>
      <point x="349" y="343" type="curve" smooth="yes"/>
      <point x="430" y="389"/>
      <point x="485" y="447"/>
      <point x="485" y="538" type="curve" smooth="yes"/>
      <point x="485" y="614"/>
      <point x="422" y="730"/>
      <point x="274" y="730" type="curve" smooth="yes"/>
      <point x="125" y="730"/>
      <point x="72" y="619"/>
      <point x="58" y="552" type="curve"/>
      <point x="120" y="528" type="line"/>
      <point x="139" y="600"/>
      <point x="175" y="667"/>
      <point x="274" y="667" type="curve" smooth="yes"/>
      <point x="372" y="667"/>
      <point x="415" y="588"/>
      <point x="415" y="538" type="curve" smooth="yes"/>
      <point x="415" y="470"/>
      <point x="386" y="437"/>
      <point x="313" y="393" type="curve" smooth="yes"/>
      <point x="230" y="343"/>
      <point x="189" y="278"/>
      <point x="182" y="230" type="curve"/>
    </contour>
    <contour>
      <point x="189" y="0" type="line"/>
      <point x="279" y="0" type="line"/>
      <point x="279" y="100" type="line"/>
      <point x="189" y="100" type="line"/>
    </contour>
  </outline>
</glyph>
<glyph name="at" format="2">
  <advance width="830"/>
  <unicode hex="0040"/>
  <outline>
    <contour>
      <point x="659" y="0" type="curve"/>
      <point x="622" y="29" type="line"/>
      <point x="565" y="-15"/>
      <point x="493" y="-41"/>
      <point x="415" y="-41" type="curve" smooth="yes"/>
      <point x="227" y="-41"/>
      <point x="96" y="94"/>
      <point x="96" y="298" type="curve" smooth="yes"/>
      <point x="96" y="502"/>
      <point x="227" y="638"/>
      <point x="415" y="638" type="curve" smooth="yes"/>
      <point x="603" y="638"/>
      <point x="735" y="502"/>
      <point x="735" y="298" type="curve" smooth="yes"/>
      <point x="735" y="198"/>
      <point x="694" y="116"/>
      <point x="647" y="116" type="curve" smooth="yes"/>
      <point x="615" y="116"/>
      <point x="598" y="148"/>
      <point x="598" y="164" type="curve"/>
      <point x="598" y="520" type="line"/>
      <point x="529" y="520" type="line"/>
      <point x="529" y="468" type="line"/>
      <point x="510" y="493"/>
      <point x="470" y="529"/>
      <point x="390" y="529" type="curve" smooth="yes"/>
      <point x="300" y="529"/>
      <point x="188" y="457"/>
      <point x="188" y="298" type="curve" smooth="yes"/>
      <point x="188" y="138"/>
      <point x="300" y="68"/>
      <point x="390" y="68" type="curve" smooth="yes"/>
      <point x="470" y="68"/>
      <point x="510" y="101"/>
      <point x="540" y="134" type="curve"/>
      <point x="558" y="92"/>
      <point x="593" y="68"/>
      <point x="632" y="68" type="curve" smooth="yes"/>
      <point x="709" y="68"/>
      <point x="780" y="168"/>
      <point x="780" y="298" type="curve" smooth="yes"/>
      <point x="780" y="531"/>
      <point x="628" y="683"/>
      <point x="415" y="683" type="curve" smooth="yes"/>
      <point x="202" y="683"/>
      <point x="50" y="531"/>
      <point x="50" y="298" type="curve" smooth="yes"/>
      <point x="50" y="65"/>
      <point x="202" y="-87"/>
      <point x="415" y="-87" type="curve" smooth="yes"/>
      <point x="508" y="-87"/>
      <point x="593" y="-55"/>
    </contour>
    <contour>
      <point x="529" y="403" type="curve"/>
      <point x="529" y="205" type="line"/>
      <point x="514" y="171"/>
      <point x="485" y="126"/>
      <point x="400" y="126" type="curve" smooth="yes"/>
      <point x="315" y="126"/>
      <point x="262" y="188"/>
      <point x="262" y="298" type="curve" smooth="yes"/>
      <point x="262" y="408"/>
      <point x="320" y="477"/>
      <point x="400" y="477" type="curve" smooth="yes"/>
      <point x="478" y="477"/>
      <point x="514" y="429"/>
    </contour>
  </outline>
</glyph>
<glyph name="A" format="2">
  <advance width="670"/>
  <unicode hex="0041"/>
  <outline>
    <contour>
      <point x="28" y="0" type="line"/>
      <point x="114" y="0" type="line"/>
      <point x="186" y="202" type="line"/>
      <point x="484" y="202" type="line"/>
      <point x="556" y="0" type="line"/>
      <point x="642" y="0" type="line"/>
      <point x="374" y="720" type="line"/>
      <point x="297" y="720" type="line"/>
    </contour>
    <contour>
      <point x="210" y="269" type="line"/>
      <point x="327" y="608" type="line"/>
      <point x="335" y="643" type="line"/>
      <point x="344" y="608" type="line"/>
      <point x="460" y="269" type="line"/>
    </contour>
  </outline>
</glyph>
<glyph name="B" format="2">
  <advance width="644"/>
  <unicode hex="0042"/>
  <outline>
    <contour>
      <point x="75" y="0" type="line"/>
      <point x="376" y="0" type="line"/>
      <point x="511" y="0"/>
      <point x="579" y="110"/>
      <point x="579" y="206" type="curve" smooth="yes"/>
      <point x="579" y="322"/>
      <point x="497" y="372"/>
      <point x="449" y="379" type="curve"/>
      <point x="493" y="384"/>
      <point x="565" y="441"/>
      <point x="565" y="533" type="curve" smooth="yes"/>
      <point x="565" y="658"/>
      <point x="473" y="720"/>
      <point x="368" y="720" type="curve" smooth="yes"/>
      <point x="75" y="720" type="line"/>
    </contour>
    <contour>
      <point x="153" y="413" type="line"/>
      <point x="153" y="653" type="line"/>
      <point x="368" y="653" type="line" smooth="yes"/>
      <point x="445" y="653"/>
      <point x="483" y="590"/>
      <point x="483" y="533" type="curve" smooth="yes"/>
      <point x="483" y="475"/>
      <point x="445" y="413"/>
      <point x="368" y="413" type="curve" smooth="yes"/>
    </contour>
    <contour>
      <point x="153" y="67" type="line"/>
      <point x="153" y="346" type="line"/>
      <point x="377" y="346" type="line" smooth="yes"/>
      <point x="445" y="346"/>
      <point x="502" y="288"/>
      <point x="502" y="206" type="curve" smooth="yes"/>
      <point x="502" y="125"/>
      <point x="444" y="67"/>
      <point x="376" y="67" type="curve" smooth="yes"/>
    </contour>
  </outline>
</glyph>
<glyph name="C" format="2">
  <advance width="740"/>
  <unicode hex="0043"/>
  <outline>
    <contour>
      <point x="632" y="213" type="line"/>
      <point x="611" y="159"/>
      <point x="546" y="58"/>
      <point x="397" y="58" type="curve" smooth="yes"/>
      <point x="248" y="58"/>
      <point x="147" y="182"/>
      <point x="147" y="360" type="curve" smooth="yes"/>
      <point x="147" y="538"/>
      <point x="248" y="662"/>
      <point x="397" y="662" type="curve" smooth="yes"/>
      <point x="542" y="662"/>
      <point x="611" y="561"/>
      <point x="632" y="507" type="curve"/>
      <point x="697" y="542" type="line"/>
      <point x="673" y="605"/>
      <point x="584" y="730"/>
      <point x="397" y="730" type="curve" smooth="yes"/>
      <point x="210" y="730"/>
      <point x="65" y="595"/>
      <point x="65" y="360" type="curve" smooth="yes"/>
      <point x="65" y="125"/>
      <point x="205" y="-10"/>
      <point x="397" y="-10" type="curve" smooth="yes"/>
      <point x="589" y="-10"/>
      <point x="673" y="115"/>
      <point x="697" y="178" type="curve"/>
    </contour>
  </outline>
</glyph>
<glyph name="D" format="2">
  <advance width="720"/>
  <unicode hex="0044"/>
  <outline>
    <contour>
      <point x="77" y="0" type="line"/>
      <point x="346" y="0" type="line"/>
      <point x="498" y="0"/>
      <point x="655" y="125"/>
      <point x="655" y="360" type="curve" smooth="yes"/>
      <point x="655" y="595"/>
      <point x="498" y="720"/>
      <point x="346" y="720" type="curve" smooth="yes"/>
      <point x="77" y="720" type="line"/>
    </contour>
    <contour>
      <point x="155" y="67" type="line"/>
      <point x="155" y="653" type="line"/>
      <point x="346" y="653" type="line" smooth="yes"/>
      <point x="440" y="653"/>
      <point x="573" y="557"/>
      <point x="573" y="360" type="curve" smooth="yes"/>
      <point x="573" y="154"/>
      <point x="442" y="67"/>
      <point x="346" y="67" type="curve" smooth="yes"/>
    </contour>
  </outline>
</glyph>
<glyph name="E" format="2">
  <advance width="590"/>
  <unicode hex="0045"/>
  <outline>
    <contour>
      <point x="80" y="0" type="line"/>
      <point x="525" y="0" type="line"/>
      <point x="525" y="67" type="line"/>
      <point x="158" y="67" type="line"/>
      <point x="158" y="346" type="line"/>
      <point x="485" y="346" type="line"/>
      <point x="485" y="413" type="line"/>
      <point x="158" y="413" type="line"/>
      <point x="158" y="653" type="line"/>
      <point x="515" y="653" type="line"/>
      <point x="515" y="720" type="line"/>
      <point x="80" y="720" type="line"/>
    </contour>
  </outline>
</glyph>
<glyph name="F" format="2">
  <advance width="560"/>
  <unicode hex="0046"/>
  <outline>
    <contour>
      <point x="80" y="0" type="line"/>
      <point x="158" y="0" type="line"/>
      <point x="158" y="346" type="line"/>
      <point x="480" y="346" type="line"/>
      <point x="480" y="413" type="line"/>
      <point x="158" y="413" type="line"/>
      <point x="158" y="653" type="line"/>
      <point x="510" y="653" type="line"/>
      <point x="510" y="720" type="line"/>
      <point x="80" y="720" type="line"/>
    </contour>
  </outline>
</glyph>
<glyph name="G" format="2">
  <advance width="770"/>
  <unicode hex="0047"/>
  <outline>
    <contour>
      <point x="451" y="288" type="line"/>
      <point x="624" y="288" type="line"/>
      <point x="624" y="221" type="line"/>
      <point x="614" y="182"/>
      <point x="546" y="58"/>
      <point x="397" y="58" type="curve" smooth="yes"/>
      <point x="248" y="58"/>
      <point x="147" y="182"/>
      <point x="147" y="360" type="curve" smooth="yes"/>
      <point x="147" y="538"/>
      <point x="248" y="662"/>
      <point x="397" y="662" type="curve" smooth="yes"/>
      <point x="546" y="662"/>
      <point x="606" y="561"/>
      <point x="626" y="507" type="curve"/>
      <point x="692" y="542" type="line"/>
      <point x="668" y="605"/>
      <point x="584" y="730"/>
      <point x="397" y="730" type="curve" smooth="yes"/>
      <point x="210" y="730"/>
      <point x="65" y="595"/>
      <point x="65" y="360" type="curve" smooth="yes"/>
      <point x="65" y="125"/>
      <point x="205" y="-10"/>
      <point x="392" y="-10" type="curve" smooth="yes"/>
      <point x="478" y="-10"/>
      <point x="585" y="29"/>
      <point x="624" y="115" type="curve"/>
      <point x="624" y="0" type="line"/>
      <point x="700" y="0" type="line"/>
      <point x="700" y="355" type="line"/>
      <point x="451" y="355" type="line"/>
    </contour>
  </outline>
</glyph>
<glyph name="H" format="2">
  <advance width="670"/>
  <unicode hex="0048"/>
  <outline>
    <contour>
      <point x="80" y="0" type="line"/>
      <point x="158" y="0" type="line"/>
      <point x="158" y="346" type="line"/>
      <point x="512" y="346" type="line"/>
      <point x="512" y="0" type="line"/>
      <point x="590" y="0" type="line"/>
      <point x="590" y="720" type="line"/>
      <point x="512" y="720" type="line"/>
      <point x="512" y="413" type="line"/>
      <point x="158" y="413" type="line"/>
      <point x="158" y="720" type="line"/>
      <point x="80" y="720" type="line"/>
    </contour>
  </outline>
</glyph>
<glyph name="I" format="2">
  <advance width="258"/>
  <unicode hex="0049"/>
  <outline>
    <contour>
      <point x="90" y="0" type="line"/>
      <point x="168" y="0" type="line"/>
      <point x="168" y="720" type="line"/>
      <point x="90" y="720" type="line"/>
    </contour>
  </outline>
</glyph>
<glyph name="J" format="2">
  <advance width="350"/>
  <unicode hex="004A"/>
  <outline>
    <contour>
      <point x="192" y="720" type="line"/>
      <point x="192" y="120" type="line" smooth="yes"/>
      <point x="192" y="72"/>
      <point x="158" y="49"/>
      <point x="119" y="49" type="curve" smooth="yes"/>
      <point x="85" y="49"/>
      <point x="55" y="60"/>
      <point x="34" y="73" type="curve"/>
      <point x="13" y="12" type="line"/>
      <point x="22" y="-1"/>
      <point x="81" y="-19"/>
      <point x="126" y="-19" type="curve" smooth="yes"/>
      <point x="203" y="-19"/>
      <point x="270" y="11"/>
      <point x="270" y="115" type="curve" smooth="yes"/>
      <point x="270" y="720" type="line"/>
    </contour>
  </outline>
</glyph>
<glyph name="K" format="2">
  <advance width="580"/>
  <unicode hex="004B"/>
  <outline>
    <contour>
      <point x="80" y="0" type="line"/>
      <point x="158" y="0" type="line"/>
      <point x="158" y="288" type="line"/>
      <point x="215" y="355" type="line"/>
      <point x="465" y="0" type="line"/>
      <point x="551" y="0" type="line"/>
      <point x="263" y="403" type="line"/>
      <point x="532" y="720" type="line"/>
      <point x="446" y="720" type="line"/>
      <point x="158" y="384" type="line"/>
      <point x="158" y="720" type="line"/>
      <point x="80" y="720" type="line"/>
    </contour>
  </outline>
</glyph>
<glyph name="L" format="2">
  <advance width="550"/>
  <unicode hex="004C"/>
  <outline>
    <contour>
      <point x="75" y="0" type="line"/>
      <point x="495" y="0" type="line"/>
      <point x="495" y="67" type="line"/>
      <point x="153" y="67" type="line"/>
      <point x="153" y="720" type="line"/>
      <point x="75" y="720" type="line"/>
    </contour>
  </outline>
</glyph>
<glyph name="M" format="2">
  <advance width="800"/>
  <unicode hex="004D"/>
  <outline>
    <contour>
      <point x="80" y="0" type="line"/>
      <point x="158" y="0" type="line"/>
      <point x="158" y="530" type="line"/>
      <point x="153" y="576" type="line"/>
      <point x="172" y="530" type="line"/>
      <point x="370" y="0" type="line"/>
      <point x="430" y="0" type="line"/>
      <point x="629" y="530" type="line"/>
      <point x="647" y="576" type="line"/>
      <point x="642" y="530" type="line"/>
      <point x="642" y="0" type="line"/>
      <point x="720" y="0" type="line"/>
      <point x="720" y="720" type="line"/>
      <point x="623" y="720" type="line"/>
      <point x="410" y="147" type="line"/>
      <point x="400" y="110" type="line"/>
      <point x="389" y="147" type="line"/>
      <point x="177" y="720" type="line"/>
      <point x="80" y="720" type="line"/>
    </contour>
  </outline>
</glyph>
<glyph name="N" format="2">
  <advance width="690"/>
  <unicode hex="004E"/>
  <outline>
    <contour>
      <point x="80" y="0" type="line"/>
      <point x="158" y="0" type="line"/>
      <point x="158" y="574" type="line"/>
      <point x="153" y="610" type="line"/>
      <point x="170" y="574" type="line"/>
      <point x="524" y="0" type="line"/>
      <point x="610" y="0" type="line"/>
      <point x="610" y="720" type="line"/>
      <point x="532" y="720" type="line"/>
      <point x="532" y="146" type="line"/>
      <point x="537" y="111" type="line"/>
      <point x="520" y="146" type="line"/>
      <point x="166" y="720" type="line"/>
      <point x="80" y="720" type="line"/>
    </contour>
  </outline>
</glyph>
<glyph name="O" format="2">
  <advance width="810"/>
  <unicode hex="004F"/>
  <outline>
    <contour>
      <point x="405" y="58" type="curve" smooth="yes"/>
      <point x="261" y="58"/>
      <point x="147" y="173"/>
      <point x="147" y="360" type="curve" smooth="yes"/>
      <point x="147" y="547"/>
      <point x="261" y="662"/>
      <point x="405" y="662" type="curve" smooth="yes"/>
      <point x="559" y="662"/>
      <point x="663" y="547"/>
      <point x="663" y="360" type="curve" smooth="yes"/>
      <point x="663" y="173"/>
      <point x="549" y="58"/>
    </contour>
    <contour>
      <point x="405" y="-10" type="curve" smooth="yes"/>
      <point x="588" y="-10"/>
      <point x="745" y="115"/>
      <point x="745" y="360" type="curve" smooth="yes"/>
      <point x="745" y="605"/>
      <point x="588" y="730"/>
      <point x="405" y="730" type="curve" smooth="yes"/>
      <point x="223" y="730"/>
      <point x="65" y="605"/>
      <point x="65" y="360" type="curve" smooth="yes"/>
      <point x="65" y="115"/>
      <point x="223" y="-10"/>
    </contour>
  </outline>
</glyph>
<glyph name="P" format="2">
  <advance width="630"/>
  <unicode hex="0050"/>
  <outline>
    <contour>
      <point x="80" y="0" type="line"/>
      <point x="158" y="0" type="line"/>
      <point x="158" y="336" type="line"/>
      <point x="363" y="336" type="line" smooth="yes"/>
      <point x="459" y="336"/>
      <point x="565" y="403"/>
      <point x="565" y="528" type="curve" smooth="yes"/>
      <point x="565" y="653"/>
      <point x="469" y="720"/>
      <point x="363" y="720" type="curve" smooth="yes"/>
      <point x="80" y="720" type="line"/>
    </contour>
    <contour>
      <point x="158" y="403" type="line"/>
      <point x="158" y="653" type="line"/>
      <point x="363" y="653" type="line" smooth="yes"/>
      <point x="439" y="653"/>
      <point x="488" y="599"/>
      <point x="488" y="528" type="curve" smooth="yes"/>
      <point x="488" y="458"/>
      <point x="440" y="403"/>
      <point x="363" y="403" type="curve" smooth="yes"/>
    </contour>
  </outline>
</glyph>
<glyph name="Q" format="2">
  <advance width="810"/>
  <unicode hex="0051"/>
  <outline>
    <contour>
      <point x="405" y="58" type="curve" smooth="yes"/>
      <point x="261" y="58"/>
      <point x="147" y="173"/>
      <point x="147" y="360" type="curve" smooth="yes"/>
      <point x="147" y="547"/>
      <point x="261" y="662"/>
      <point x="405" y="662" type="curve" smooth="yes"/>
      <point x="559" y="662"/>
      <point x="663" y="547"/>
      <point x="663" y="360" type="curve" smooth="yes"/>
      <point x="663" y="173"/>
      <point x="549" y="58"/>
    </contour>
    <contour>
      <point x="405" y="730" type="curve" smooth="yes"/>
      <point x="223" y="730"/>
      <point x="65" y="605"/>
      <point x="65" y="360" type="curve" smooth="yes"/>
      <point x="65" y="115"/>
      <point x="223" y="-10"/>
      <point x="405" y="-10" type="curve" smooth="yes"/>
      <point x="429" y="-10"/>
      <point x="462" y="-38"/>
      <point x="481" y="-58" type="curve"/>
      <point x="539" y="-106"/>
      <point x="606" y="-154"/>
      <point x="683" y="-154" type="curve"/>
      <point x="731" y="-96" type="line"/>
      <point x="664" y="-86"/>
      <point x="558" y="-48"/>
      <point x="529" y="10" type="curve"/>
      <point x="596" y="38"/>
      <point x="745" y="115"/>
      <point x="745" y="360" type="curve" smooth="yes"/>
      <point x="745" y="605"/>
      <point x="588" y="730"/>
    </contour>
  </outline>
</glyph>
<glyph name="R" format="2">
  <advance width="624"/>
  <unicode hex="0052"/>
  <outline>
    <contour>
      <point x="80" y="0" type="line"/>
      <point x="158" y="0" type="line"/>
      <point x="158" y="336" type="line"/>
      <point x="334" y="336" type="line"/>
      <point x="512" y="0" type="line"/>
      <point x="598" y="0" type="line"/>
      <point x="416" y="345" type="line"/>
      <point x="467" y="353"/>
      <point x="565" y="408"/>
      <point x="565" y="528" type="curve" smooth="yes"/>
      <point x="565" y="648"/>
      <point x="478" y="720"/>
      <point x="363" y="720" type="curve" smooth="yes"/>
      <point x="80" y="720" type="line"/>
    </contour>
    <contour>
      <point x="158" y="403" type="line"/>
      <point x="158" y="653" type="line"/>
      <point x="363" y="653" type="line" smooth="yes"/>
      <point x="439" y="653"/>
      <point x="488" y="599"/>
      <point x="488" y="528" type="curve" smooth="yes"/>
      <point x="488" y="458"/>
      <point x="440" y="403"/>
      <point x="363" y="403" type="curve" smooth="yes"/>
    </contour>
  </outline>
</glyph>
<glyph name="S" format="2">
  <advance width="649"/>
  <unicode hex="0053"/>
  <outline>
    <contour>
      <point x="570" y="614" type="line"/>
      <point x="545" y="660"/>
      <point x="464" y="730"/>
      <point x="330" y="730" type="curve" smooth="yes"/>
      <point x="185" y="730"/>
      <point x="87" y="648"/>
      <point x="87" y="538" type="curve" smooth="yes"/>
      <point x="87" y="418"/>
      <point x="192" y="367"/>
      <point x="310" y="336" type="curve" smooth="yes"/>
      <point x="443" y="301"/>
      <point x="516" y="282"/>
      <point x="516" y="189" type="curve" smooth="yes"/>
      <point x="516" y="114"/>
      <point x="437" y="58"/>
      <point x="331" y="58" type="curve" smooth="yes"/>
      <point x="225" y="58"/>
      <point x="146" y="117"/>
      <point x="116" y="170" type="curve"/>
      <point x="56" y="127" type="line"/>
      <point x="78" y="77"/>
      <point x="184" y="-10"/>
      <point x="331" y="-10" type="curve" smooth="yes"/>
      <point x="490" y="-10"/>
      <point x="595" y="79"/>
      <point x="595" y="194" type="curve" smooth="yes"/>
      <point x="595" y="319"/>
      <point x="480" y="370"/>
      <point x="360" y="398" type="curve" smooth="yes"/>
      <point x="227" y="430"/>
      <point x="167" y="464"/>
      <point x="167" y="542" type="curve" smooth="yes"/>
      <point x="167" y="606"/>
      <point x="226" y="662"/>
      <point x="330" y="662" type="curve" smooth="yes"/>
      <point x="420" y="662"/>
      <point x="479" y="614"/>
      <point x="506" y="569" type="curve"/>
    </contour>
  </outline>
</glyph>
<glyph name="T" format="2">
  <advance width="560"/>
  <unicode hex="0054"/>
  <outline>
    <contour>
      <point x="241" y="0" type="line"/>
      <point x="319" y="0" type="line"/>
      <point x="319" y="653" type="line"/>
      <point x="520" y="653" type="line"/>
      <point x="520" y="720" type="line"/>
      <point x="40" y="720" type="line"/>
      <point x="40" y="653" type="line"/>
      <point x="241" y="653" type="line"/>
    </contour>
  </outline>
</glyph>
<glyph name="U" format="2">
  <advance width="680"/>
  <unicode hex="0055"/>
  <outline>
    <contour>
      <point x="80" y="720" type="line"/>
      <point x="80" y="221" type="line" smooth="yes"/>
      <point x="80" y="86"/>
      <point x="196" y="-10"/>
      <point x="340" y="-10" type="curve" smooth="yes"/>
      <point x="494" y="-10"/>
      <point x="600" y="86"/>
      <point x="600" y="221" type="curve" smooth="yes"/>
      <point x="600" y="720" type="line"/>
      <point x="522" y="720" type="line"/>
      <point x="522" y="221" type="line" smooth="yes"/>
      <point x="522" y="106"/>
      <point x="427" y="58"/>
      <point x="340" y="58" type="curve" smooth="yes"/>
      <point x="254" y="58"/>
      <point x="158" y="115"/>
      <point x="158" y="221" type="curve" smooth="yes"/>
      <point x="158" y="720" type="line"/>
    </contour>
  </outline>
</glyph>
<glyph name="V" format="2">
  <advance width="674"/>
  <unicode hex="0056"/>
  <outline>
    <contour>
      <point x="299" y="0" type="line"/>
      <point x="376" y="0" type="line"/>
      <point x="644" y="720" type="line"/>
      <point x="558" y="720" type="line"/>
      <point x="346" y="112" type="line"/>
      <point x="337" y="77" type="line"/>
      <point x="328" y="112" type="line"/>
      <point x="116" y="720" type="line"/>
      <point x="30" y="720" type="line"/>
    </contour>
  </outline>
</glyph>
<glyph name="W" format="2">
  <advance width="898"/>
  <unicode hex="0057"/>
  <outline>
    <contour>
      <point x="226" y="0" type="line"/>
      <point x="303" y="0" type="line"/>
      <point x="446" y="552" type="line"/>
      <point x="451" y="588" type="line"/>
      <point x="457" y="552" type="line"/>
      <point x="600" y="0" type="line"/>
      <point x="677" y="0" type="line"/>
      <point x="869" y="720" type="line"/>
      <point x="792" y="720" type="line"/>
      <point x="647" y="169" type="line"/>
      <point x="639" y="123" type="line"/>
      <point x="630" y="169" type="line"/>
      <point x="490" y="720" type="line"/>
      <point x="413" y="720" type="line"/>
      <point x="273" y="169" type="line"/>
      <point x="264" y="123" type="line"/>
      <point x="255" y="169" type="line"/>
      <point x="106" y="720" type="line"/>
      <point x="29" y="720" type="line"/>
    </contour>
  </outline>
</glyph>
<glyph name="X" format="2">
  <advance width="615"/>
  <unicode hex="0058"/>
  <outline>
    <contour>
      <point x="29" y="0" type="line"/>
      <point x="115" y="0" type="line"/>
      <point x="294" y="281" type="line"/>
      <point x="307" y="312" type="line"/>
      <point x="321" y="281" type="line"/>
      <point x="499" y="0" type="line"/>
      <point x="586" y="0" type="line"/>
      <point x="351" y="374" type="line"/>
      <point x="571" y="720" type="line"/>
      <point x="480" y="720" type="line"/>
      <point x="319" y="465" type="line"/>
      <point x="307" y="437" type="line"/>
      <point x="296" y="465" type="line"/>
      <point x="135" y="720" type="line"/>
      <point x="43" y="720" type="line"/>
      <point x="264" y="374" type="line"/>
    </contour>
  </outline>
</glyph>
<glyph name="Y" format="2">
  <advance width="666"/>
  <unicode hex="0059"/>
  <outline>
    <contour>
      <point x="289" y="0" type="line"/>
      <point x="367" y="0" type="line"/>
      <point x="367" y="365" type="line"/>
      <point x="626" y="720" type="line"/>
      <point x="535" y="720" type="line"/>
      <point x="328" y="437" type="line"/>
      <point x="131" y="720" type="line"/>
      <point x="40" y="720" type="line"/>
      <point x="289" y="365" type="line"/>
    </contour>
  </outline>
</glyph>
<glyph name="Z" format="2">
  <advance width="665"/>
  <unicode hex="005A"/>
  <outline>
    <contour>
      <point x="55" y="0" type="line"/>
      <point x="610" y="0" type="line"/>
      <point x="610" y="67" type="line"/>
      <point x="141" y="67" type="line"/>
      <point x="610" y="643" type="line"/>
      <point x="610" y="720" type="line"/>
      <point x="55" y="720" type="line"/>
      <point x="55" y="653" type="line"/>
      <point x="533" y="653" type="line"/>
      <point x="55" y="77" type="line"/>
    </contour>
  </outline>
</glyph>
<glyph name="bracketleft" format="2">
  <advance width="380"/>
  <unicode hex="005B"/>
  <outline>
    <contour>
      <point x="80" y="-70" type="line"/>
      <point x="330" y="-70" type="line"/>
      <point x="330" y="-10" type="line"/>
      <point x="140" y="-10" type="line"/>
      <point x="140" y="690" type="line"/>
      <point x="330" y="690" type="line"/>
      <point x="330" y="750" type="line"/>
      <point x="80" y="750" type="line"/>
    </contour>
  </outline>
</glyph>
<glyph name="backslash" format="2">
  <advance width="340"/>
  <unicode hex="005C"/>
  <outline>
    <contour>
      <point x="290" y="-80" type="line"/>
      <point x="350" y="-80" type="line"/>
      <point x="50" y="800" type="line"/>
      <point x="-10" y="800" type="line"/>
    </contour>
  </outline>
</glyph>
<glyph name="bracketright" format="2">
  <advance width="380"/>
  <unicode hex="005D"/>
  <outline>
    <contour>
      <point x="50" y="-70" type="line"/>
      <point x="300" y="-70" type="line"/>
      <point x="300" y="750" type="line"/>
      <point x="50" y="750" type="line"/>
      <point x="50" y="690" type="line"/>
      <point x="240" y="690" type="line"/>
      <point x="240" y="-10" type="line"/>
      <point x="50" y="-10" type="line"/>
    </contour>
  </outline>
</glyph>
<glyph name="asciicircum" format="2">
  <advance width="420"/>
  <unicode hex="005E"/>
  <outline>
    <contour>
      <point x="40" y="520" type="line"/>
      <point x="110" y="480" type="line"/>
      <point x="210" y="670" type="line"/>
      <point x="310" y="480" type="line"/>
      <point x="380" y="520" type="line"/>
      <point x="250" y="750" type="line"/>
      <point x="170" y="750" type="line"/>
    </contour>
  </outline>
</glyph>
<glyph name="underscore" format="2">
  <advance width="420"/>
  <unicode hex="005F"/>
  <outline>
    <contour>
      <point x="10" y="-150" type="line"/>
      <point x="410" y="-150" type="line"/>
      <point x="410" y="-100" type="line"/>
      <point x="10" y="-100" type="line"/>
    </contour>
  </outline>
</glyph>
<glyph name="a" format="2">
  <advance width="550"/>
  <unicode hex="0061"/>
  <outline>
    <contour>
      <point x="75" y="440" type="curve"/>
      <point x="120" y="396" type="line"/>
      <point x="134" y="410"/>
      <point x="193" y="470"/>
      <point x="280" y="470" type="curve" smooth="yes"/>
      <point x="400" y="470"/>
      <point x="410" y="385"/>
      <point x="410" y="360" type="curve" smooth="yes"/>
      <point x="410" y="289" type="line"/>
      <point x="383" y="301"/>
      <point x="328" y="323"/>
      <point x="263" y="323" type="curve" smooth="yes"/>
      <point x="125" y="323"/>
      <point x="57" y="240"/>
      <point x="57" y="155" type="curve" smooth="yes"/>
      <point x="57" y="62"/>
      <point x="129" y="-10"/>
      <point x="250" y="-10" type="curve" smooth="yes"/>
      <point x="313" y="-10"/>
      <point x="383" y="27"/>
      <point x="410" y="61" type="curve"/>
      <point x="435" y="0" type="line"/>
      <point x="510" y="0" type="line"/>
      <point x="499" y="22"/>
      <point x="480" y="70"/>
      <point x="480" y="100" type="curve" smooth="yes"/>
      <point x="480" y="370" type="line" smooth="yes"/>
      <point x="480" y="464"/>
      <point x="410" y="530"/>
      <point x="280" y="530" type="curve" smooth="yes"/>
      <point x="170" y="530"/>
      <point x="94" y="461"/>
    </contour>
    <contour>
      <point x="410" y="239" type="curve"/>
      <point x="410" y="122" type="line"/>
      <point x="390" y="89"/>
      <point x="323" y="48"/>
      <point x="253" y="48" type="curve" smooth="yes"/>
      <point x="190" y="48"/>
      <point x="130" y="83"/>
      <point x="130" y="156" type="curve" smooth="yes"/>
      <point x="130" y="226"/>
      <point x="180" y="269"/>
      <point x="268" y="269" type="curve" smooth="yes"/>
      <point x="328" y="269"/>
      <point x="380" y="252"/>
    </contour>
  </outline>
</glyph>
<glyph name="b" format="2">
  <advance width="600"/>
  <unicode hex="0062"/>
  <outline>
    <contour>
      <point x="70" y="0" type="line"/>
      <point x="140" y="0" type="line"/>
      <point x="140" y="90" type="line"/>
      <point x="156" y="50"/>
      <point x="214" y="-10"/>
      <point x="314" y="-10" type="curve" smooth="yes"/>
      <point x="404" y="-10"/>
      <point x="550" y="50"/>
      <point x="550" y="260" type="curve" smooth="yes"/>
      <point x="550" y="470"/>
      <point x="405" y="530"/>
      <point x="315" y="530" type="curve" smooth="yes"/>
      <point x="215" y="530"/>
      <point x="156" y="470"/>
      <point x="140" y="430" type="curve"/>
      <point x="140" y="750" type="line"/>
      <point x="70" y="750" type="line"/>
    </contour>
    <contour>
      <point x="140" y="355" type="line"/>
      <point x="155" y="405"/>
      <point x="219" y="470"/>
      <point x="304" y="470" type="curve" smooth="yes"/>
      <point x="419" y="470"/>
      <point x="478" y="380"/>
      <point x="478" y="260" type="curve" smooth="yes"/>
      <point x="478" y="140"/>
      <point x="420" y="50"/>
      <point x="305" y="50" type="curve" smooth="yes"/>
      <point x="220" y="50"/>
      <point x="155" y="115"/>
      <point x="140" y="165" type="curve"/>
    </contour>
  </outline>
</glyph>
<glyph name="c" format="2">
  <advance width="560"/>
  <unicode hex="0063"/>
  <outline>
    <contour>
      <point x="460" y="350" type="curve"/>
      <point x="520" y="380" type="line"/>
      <point x="490" y="470"/>
      <point x="405" y="530"/>
      <point x="296" y="530" type="curve" smooth="yes"/>
      <point x="175" y="530"/>
      <point x="50" y="450"/>
      <point x="50" y="260" type="curve" smooth="yes"/>
      <point x="50" y="70"/>
      <point x="175" y="-10"/>
      <point x="295" y="-10" type="curve" smooth="yes"/>
      <point x="405" y="-10"/>
      <point x="490" y="40"/>
      <point x="520" y="140" type="curve"/>
      <point x="460" y="170" type="line"/>
      <point x="440" y="110"/>
      <point x="385" y="50"/>
      <point x="295" y="50" type="curve" smooth="yes"/>
      <point x="205" y="50"/>
      <point x="125" y="120"/>
      <point x="125" y="260" type="curve" smooth="yes"/>
      <point x="125" y="400"/>
      <point x="205" y="470"/>
      <point x="295" y="470" type="curve" smooth="yes"/>
      <point x="385" y="470"/>
      <point x="440" y="410"/>
    </contour>
  </outline>
</glyph>
<glyph name="d" format="2">
  <advance width="605"/>
  <unicode hex="0064"/>
  <outline>
    <contour>
      <point x="465" y="165" type="line"/>
      <point x="450" y="115"/>
      <point x="381" y="50"/>
      <point x="296" y="50" type="curve" smooth="yes"/>
      <point x="181" y="50"/>
      <point x="117" y="140"/>
      <point x="117" y="260" type="curve" smooth="yes"/>
      <point x="117" y="380"/>
      <point x="180" y="470"/>
      <point x="295" y="470" type="curve" smooth="yes"/>
      <point x="380" y="470"/>
      <point x="450" y="405"/>
      <point x="465" y="355" type="curve"/>
    </contour>
    <contour>
      <point x="465" y="0" type="line"/>
      <point x="535" y="0" type="line"/>
      <point x="535" y="750" type="line"/>
      <point x="465" y="750" type="line"/>
      <point x="465" y="430" type="line"/>
      <point x="449" y="470"/>
      <point x="386" y="530"/>
      <point x="286" y="530" type="curve" smooth="yes"/>
      <point x="196" y="530"/>
      <point x="45" y="470"/>
      <point x="45" y="260" type="curve" smooth="yes"/>
      <point x="45" y="50"/>
      <point x="195" y="-10"/>
      <point x="285" y="-10" type="curve" smooth="yes"/>
      <point x="385" y="-10"/>
      <point x="449" y="50"/>
      <point x="465" y="90" type="curve"/>
    </contour>
  </outline>
</glyph>
<glyph name="e" format="2">
  <advance width="570"/>
  <unicode hex="0065"/>
  <outline>
    <contour>
      <point x="120" y="300" type="line"/>
      <point x="120" y="380"/>
      <point x="175" y="470"/>
      <point x="285" y="470" type="curve" smooth="yes"/>
      <point x="395" y="470"/>
      <point x="450" y="380"/>
      <point x="450" y="300" type="curve"/>
    </contour>
    <contour>
      <point x="445" y="135" type="line"/>
      <point x="415" y="91"/>
      <point x="365" y="50"/>
      <point x="285" y="50" type="curve" smooth="yes"/>
      <point x="170" y="50"/>
      <point x="120" y="150"/>
      <point x="120" y="240" type="curve"/>
      <point x="525" y="240" type="line"/>
      <point x="525" y="248"/>
      <point x="525" y="253"/>
      <point x="525" y="260" type="curve" smooth="yes"/>
      <point x="525" y="453"/>
      <point x="395" y="530"/>
      <point x="285" y="530" type="curve" smooth="yes"/>
      <point x="175" y="530"/>
      <point x="45" y="460"/>
      <point x="45" y="260" type="curve" smooth="yes"/>
      <point x="45" y="60"/>
      <point x="180" y="-10"/>
      <point x="285" y="-10" type="curve" smooth="yes"/>
      <point x="415" y="-10"/>
      <point x="474" y="60"/>
      <point x="502" y="105" type="curve"/>
    </contour>
  </outline>
</glyph>
<glyph name="f" format="2">
  <advance width="380"/>
  <unicode hex="0066"/>
  <outline>
    <contour>
      <point x="120" y="0" type="line"/>
      <point x="190" y="0" type="line"/>
      <point x="190" y="465" type="line"/>
      <point x="320" y="465" type="line"/>
      <point x="320" y="520" type="line"/>
      <point x="190" y="520" type="line"/>
      <point x="190" y="633" type="line" smooth="yes"/>
      <point x="190" y="678"/>
      <point x="218" y="704"/>
      <point x="263" y="704" type="curve" smooth="yes"/>
      <point x="303" y="704"/>
      <point x="328" y="689"/>
      <point x="345" y="678" type="curve"/>
      <point x="370" y="727" type="line"/>
      <point x="344" y="744"/>
      <point x="312" y="760"/>
      <point x="255" y="760" type="curve" smooth="yes"/>
      <point x="154" y="760"/>
      <point x="120" y="690"/>
      <point x="120" y="636" type="curve" smooth="yes"/>
      <point x="120" y="520" type="line"/>
      <point x="30" y="520" type="line"/>
      <point x="30" y="465" type="line"/>
      <point x="120" y="465" type="line"/>
    </contour>
  </outline>
</glyph>
<glyph name="g" format="2">
  <advance width="605"/>
  <unicode hex="0067"/>
  <outline>
    <contour>
      <point x="64" y="-123" type="line"/>
      <point x="94" y="-173"/>
      <point x="175" y="-240"/>
      <point x="295" y="-240" type="curve" smooth="yes"/>
      <point x="425" y="-240"/>
      <point x="535" y="-170"/>
      <point x="535" y="-30" type="curve" smooth="yes"/>
      <point x="535" y="520" type="line"/>
      <point x="465" y="520" type="line"/>
      <point x="465" y="430" type="line"/>
      <point x="449" y="470"/>
      <point x="386" y="530"/>
      <point x="286" y="530" type="curve" smooth="yes"/>
      <point x="196" y="530"/>
      <point x="45" y="470"/>
      <point x="45" y="260" type="curve" smooth="yes"/>
      <point x="45" y="50"/>
      <point x="195" y="-10"/>
      <point x="285" y="-10" type="curve" smooth="yes"/>
      <point x="385" y="-10"/>
      <point x="449" y="50"/>
      <point x="465" y="90" type="curve"/>
      <point x="465" y="-30" type="line" smooth="yes"/>
      <point x="465" y="-135"/>
      <point x="375" y="-178"/>
      <point x="295" y="-178" type="curve" smooth="yes"/>
      <point x="205" y="-178"/>
      <point x="142" y="-127"/>
      <point x="115" y="-84" type="curve"/>
    </contour>
    <contour>
      <point x="465" y="165" type="line"/>
      <point x="450" y="115"/>
      <point x="381" y="50"/>
      <point x="296" y="50" type="curve" smooth="yes"/>
      <point x="181" y="50"/>
      <point x="117" y="140"/>
      <point x="117" y="260" type="curve" smooth="yes"/>
      <point x="117" y="380"/>
      <point x="180" y="470"/>
      <point x="295" y="470" type="curve" smooth="yes"/>
      <point x="380" y="470"/>
      <point x="450" y="405"/>
      <point x="465" y="355" type="curve"/>
    </contour>
  </outline>
</glyph>
<glyph name="h" format="2">
  <advance width="560"/>
  <unicode hex="0068"/>
  <outline>
    <contour>
      <point x="70" y="0" type="line"/>
      <point x="140" y="0" type="line"/>
      <point x="140" y="345" type="line"/>
      <point x="150" y="390"/>
      <point x="200" y="470"/>
      <point x="300" y="470" type="curve" smooth="yes"/>
      <point x="390" y="470"/>
      <point x="420" y="410"/>
      <point x="420" y="345" type="curve" smooth="yes"/>
      <point x="420" y="0" type="line"/>
      <point x="490" y="0" type="line"/>
      <point x="490" y="355" type="line" smooth="yes"/>
      <point x="490" y="465"/>
      <point x="415" y="530"/>
      <point x="310" y="530" type="curve" smooth="yes"/>
      <point x="213" y="530"/>
      <point x="160" y="480"/>
      <point x="140" y="429" type="curve"/>
      <point x="140" y="750" type="line"/>
      <point x="70" y="750" type="line"/>
    </contour>
  </outline>
</glyph>
<glyph name="i" format="2">
  <advance width="220"/>
  <unicode hex="0069"/>
  <outline>
    <contour>
      <point x="75" y="0" type="line"/>
      <point x="145" y="0" type="line"/>
      <point x="145" y="520" type="line"/>
      <point x="75" y="520" type="line"/>
    </contour>
    <contour>
      <point x="75" y="630" type="line"/>
      <point x="145" y="630" type="line"/>
      <point x="145" y="710" type="line"/>
      <point x="75" y="710" type="line"/>
    </contour>
  </outline>
</glyph>
<glyph name="j" format="2">
  <advance width="270"/>
  <unicode hex="006A"/>
  <outline>
    <contour>
      <point x="32" y="-164" type="curve"/>
      <point x="10" y="-218" type="line"/>
      <point x="25" y="-231"/>
      <point x="61" y="-240"/>
      <point x="90" y="-240" type="curve" smooth="yes"/>
      <point x="150" y="-240"/>
      <point x="200" y="-203"/>
      <point x="200" y="-137" type="curve" smooth="yes"/>
      <point x="200" y="520" type="line"/>
      <point x="130" y="520" type="line"/>
      <point x="130" y="-131" type="line" smooth="yes"/>
      <point x="130" y="-163"/>
      <point x="105" y="-178"/>
      <point x="80" y="-178" type="curve" smooth="yes"/>
      <point x="65" y="-178"/>
      <point x="46" y="-174"/>
    </contour>
    <contour>
      <point x="130" y="630" type="line"/>
      <point x="200" y="630" type="line"/>
      <point x="200" y="710" type="line"/>
      <point x="130" y="710" type="line"/>
    </contour>
  </outline>
</glyph>
<glyph name="k" format="2">
  <advance width="510"/>
  <unicode hex="006B"/>
  <outline>
    <contour>
      <point x="70" y="0" type="line"/>
      <point x="140" y="0" type="line"/>
      <point x="140" y="210" type="line"/>
      <point x="210" y="280" type="line"/>
      <point x="400" y="0" type="line"/>
      <point x="480" y="0" type="line"/>
      <point x="260" y="320" type="line"/>
      <point x="460" y="520" type="line"/>
      <point x="370" y="520" type="line"/>
      <point x="140" y="300" type="line"/>
      <point x="140" y="750" type="line"/>
      <point x="70" y="750" type="line"/>
    </contour>
  </outline>
</glyph>
<glyph name="l" format="2">
  <advance width="220"/>
  <unicode hex="006C"/>
  <outline>
    <contour>
      <point x="75" y="0" type="line"/>
      <point x="145" y="0" type="line"/>
      <point x="145" y="750" type="line"/>
      <point x="75" y="750" type="line"/>
    </contour>
  </outline>
</glyph>
<glyph name="m" format="2">
  <advance width="830"/>
  <unicode hex="006D"/>
  <outline>
    <contour>
      <point x="70" y="0" type="line"/>
      <point x="140" y="0" type="line"/>
      <point x="140" y="355" type="line"/>
      <point x="155" y="400"/>
      <point x="195" y="470"/>
      <point x="280" y="470" type="curve" smooth="yes"/>
      <point x="343" y="470"/>
      <point x="377" y="426"/>
      <point x="380" y="373" type="curve"/>
      <point x="380" y="0" type="line"/>
      <point x="450" y="0" type="line"/>
      <point x="450" y="355" type="line"/>
      <point x="465" y="400"/>
      <point x="505" y="470"/>
      <point x="590" y="470" type="curve" smooth="yes"/>
      <point x="657" y="470"/>
      <point x="690" y="422"/>
      <point x="690" y="365" type="curve" smooth="yes"/>
      <point x="690" y="0" type="line"/>
      <point x="760" y="0" type="line"/>
      <point x="760" y="375" type="line" smooth="yes"/>
      <point x="760" y="475"/>
      <point x="689" y="530"/>
      <point x="599" y="530" type="curve" smooth="yes"/>
      <point x="522" y="530"/>
      <point x="466" y="495"/>
      <point x="434" y="439" type="curve"/>
      <point x="405" y="501"/>
      <point x="360" y="530"/>
      <point x="289" y="530" type="curve" smooth="yes"/>
      <point x="212" y="530"/>
      <point x="160" y="490"/>
      <point x="140" y="439" type="curve"/>
      <point x="140" y="520" type="line"/>
      <point x="70" y="520" type="line"/>
    </contour>
  </outline>
</glyph>
<glyph name="n" format="2">
  <advance width="550"/>
  <unicode hex="006E"/>
  <outline>
    <contour>
      <point x="65" y="0" type="line"/>
      <point x="135" y="0" type="line"/>
      <point x="135" y="345" type="line"/>
      <point x="145" y="390"/>
      <point x="195" y="470"/>
      <point x="295" y="470" type="curve" smooth="yes"/>
      <point x="385" y="470"/>
      <point x="415" y="410"/>
      <point x="415" y="345" type="curve" smooth="yes"/>
      <point x="415" y="0" type="line"/>
      <point x="485" y="0" type="line"/>
      <point x="485" y="355" type="line" smooth="yes"/>
      <point x="485" y="465"/>
      <point x="412" y="530"/>
      <point x="307" y="530" type="curve" smooth="yes"/>
      <point x="210" y="530"/>
      <point x="155" y="480"/>
      <point x="135" y="429" type="curve"/>
      <point x="135" y="520" type="line"/>
      <point x="65" y="520" type="line"/>
    </contour>
  </outline>
</glyph>
<glyph name="o" format="2">
  <advance width="591"/>
  <unicode hex="006F"/>
  <outline>
    <contour>
      <point x="295" y="50" type="curve" smooth="yes"/>
      <point x="175" y="50"/>
      <point x="120" y="150"/>
      <point x="120" y="260" type="curve" smooth="yes"/>
      <point x="120" y="370"/>
      <point x="175" y="470"/>
      <point x="295" y="470" type="curve" smooth="yes"/>
      <point x="415" y="470"/>
      <point x="470" y="370"/>
      <point x="470" y="260" type="curve" smooth="yes"/>
      <point x="470" y="150"/>
      <point x="415" y="50"/>
    </contour>
    <contour>
      <point x="295" y="-10" type="curve" smooth="yes"/>
      <point x="425" y="-10"/>
      <point x="545" y="80"/>
      <point x="545" y="260" type="curve" smooth="yes"/>
      <point x="545" y="440"/>
      <point x="425" y="530"/>
      <point x="295" y="530" type="curve" smooth="yes"/>
      <point x="165" y="530"/>
      <point x="45" y="440"/>
      <point x="45" y="260" type="curve" smooth="yes"/>
      <point x="45" y="80"/>
      <point x="165" y="-10"/>
    </contour>
  </outline>
</glyph>
<glyph name="p" format="2">
  <advance width="605"/>
  <unicode hex="0070"/>
  <outline>
    <contour>
      <point x="140" y="165" type="curve"/>
      <point x="140" y="355" type="line"/>
      <point x="155" y="405"/>
      <point x="224" y="470"/>
      <point x="309" y="470" type="curve" smooth="yes"/>
      <point x="424" y="470"/>
      <point x="488" y="380"/>
      <point x="488" y="260" type="curve" smooth="yes"/>
      <point x="488" y="140"/>
      <point x="425" y="50"/>
      <point x="310" y="50" type="curve" smooth="yes"/>
      <point x="225" y="50"/>
      <point x="155" y="115"/>
    </contour>
    <contour>
      <point x="70" y="-230" type="line"/>
      <point x="140" y="-230" type="line"/>
      <point x="140" y="90" type="line"/>
      <point x="156" y="50"/>
      <point x="219" y="-10"/>
      <point x="319" y="-10" type="curve" smooth="yes"/>
      <point x="409" y="-10"/>
      <point x="560" y="50"/>
      <point x="560" y="260" type="curve" smooth="yes"/>
      <point x="560" y="470"/>
      <point x="410" y="530"/>
      <point x="320" y="530" type="curve" smooth="yes"/>
      <point x="220" y="530"/>
      <point x="156" y="470"/>
      <point x="140" y="430" type="curve"/>
      <point x="140" y="520" type="line"/>
      <point x="70" y="520" type="line"/>
    </contour>
  </outline>
</glyph>
<glyph name="r" format="2">
  <advance width="400"/>
  <unicode hex="0072"/>
  <outline>
    <contour>
      <point x="70" y="0" type="line"/>
      <point x="140" y="0" type="line"/>
      <point x="140" y="320" type="line" smooth="yes"/>
      <point x="140" y="370"/>
      <point x="200" y="466"/>
      <point x="260" y="466" type="curve" smooth="yes"/>
      <point x="305" y="466"/>
      <point x="320" y="450"/>
      <point x="340" y="430" type="curve"/>
      <point x="370" y="486" type="line"/>
      <point x="359" y="500"/>
      <point x="332" y="530"/>
      <point x="270" y="530" type="curve" smooth="yes"/>
      <point x="201" y="530"/>
      <point x="149" y="458"/>
      <point x="140" y="429" type="curve"/>
      <point x="140" y="520" type="line"/>
      <point x="70" y="520" type="line"/>
    </contour>
  </outline>
</glyph>
<glyph name="s" format="2">
  <advance width="500"/>
  <unicode hex="0073"/>
  <outline>
    <contour>
      <point x="41" y="100" type="line"/>
      <point x="64" y="48"/>
      <point x="153" y="-10"/>
      <point x="259" y="-10" type="curve" smooth="yes"/>
      <point x="363" y="-10"/>
      <point x="465" y="51"/>
      <point x="465" y="143" type="curve" smooth="yes"/>
      <point x="465" y="230"/>
      <point x="393" y="272"/>
      <point x="271" y="295" type="curve" smooth="yes"/>
      <point x="176" y="313"/>
      <point x="134" y="339"/>
      <point x="134" y="390" type="curve" smooth="yes"/>
      <point x="134" y="428"/>
      <point x="180" y="471"/>
      <point x="255" y="471" type="curve" smooth="yes"/>
      <point x="324" y="471"/>
      <point x="367" y="439"/>
      <point x="388" y="403" type="curve"/>
      <point x="444" y="438" type="line"/>
      <point x="425" y="478"/>
      <point x="359" y="530"/>
      <point x="255" y="530" type="curve" smooth="yes"/>
      <point x="151" y="530"/>
      <point x="64" y="469"/>
      <point x="64" y="386" type="curve" smooth="yes"/>
      <point x="64" y="298"/>
      <point x="135" y="258"/>
      <point x="240" y="237" type="curve" smooth="yes"/>
      <point x="342" y="217"/>
      <point x="392" y="193"/>
      <point x="392" y="138" type="curve" smooth="yes"/>
      <point x="392" y="94"/>
      <point x="338" y="49"/>
      <point x="259" y="49" type="curve" smooth="yes"/>
      <point x="184" y="49"/>
      <point x="114" y="92"/>
      <point x="95" y="135" type="curve"/>
    </contour>
  </outline>
</glyph>
<glyph name="t" format="2">
  <advance width="347"/>
  <unicode hex="0074"/>
  <outline>
    <contour>
      <point x="20" y="465" type="line"/>
      <point x="100" y="465" type="line"/>
      <point x="100" y="102" type="line" smooth="yes"/>
      <point x="100" y="33"/>
      <point x="144" y="-10"/>
      <point x="220" y="-10" type="curve" smooth="yes"/>
      <point x="244" y="-10"/>
      <point x="301" y="5"/>
      <point x="335" y="35" type="curve"/>
      <point x="325" y="89" type="line"/>
      <point x="294" y="69"/>
      <point x="254" y="51"/>
      <point x="225" y="51" type="curve" smooth="yes"/>
      <point x="199" y="51"/>
      <point x="170" y="65"/>
      <point x="170" y="105" type="curve" smooth="yes"/>
      <point x="170" y="465" type="line"/>
      <point x="300" y="465" type="line"/>
      <point x="300" y="520" type="line"/>
      <point x="170" y="520" type="line"/>
      <point x="170" y="680" type="line"/>
      <point x="100" y="650" type="line"/>
      <point x="100" y="520" type="line"/>
      <point x="20" y="520" type="line"/>
    </contour>
  </outline>
</glyph>
<glyph name="u" format="2">
  <advance width="560"/>
  <unicode hex="0075"/>
  <outline>
    <contour>
      <point x="420" y="0" type="line"/>
      <point x="490" y="0" type="line"/>
      <point x="490" y="520" type="line"/>
      <point x="420" y="520" type="line"/>
      <point x="420" y="175" type="line"/>
      <point x="410" y="130"/>
      <point x="360" y="50"/>
      <point x="260" y="50" type="curve" smooth="yes"/>
      <point x="170" y="50"/>
      <point x="140" y="110"/>
      <point x="140" y="175" type="curve" smooth="yes"/>
      <point x="140" y="520" type="line"/>
      <point x="70" y="520" type="line"/>
      <point x="70" y="165" type="line" smooth="yes"/>
      <point x="70" y="55"/>
      <point x="145" y="-10"/>
      <point x="250" y="-10" type="curve" smooth="yes"/>
      <point x="347" y="-10"/>
      <point x="400" y="40"/>
      <point x="420" y="91" type="curve"/>
    </contour>
  </outline>
</glyph>
<glyph name="v" format="2">
  <advance width="520"/>
  <unicode hex="0076"/>
  <outline>
    <contour>
      <point x="220" y="0" type="line"/>
      <point x="300" y="0" type="line"/>
      <point x="490" y="520" type="line"/>
      <point x="416" y="520" type="line"/>
      <point x="269" y="112" type="line"/>
      <point x="260" y="76" type="line"/>
      <point x="251" y="112" type="line"/>
      <point x="104" y="520" type="line"/>
      <point x="30" y="520" type="line"/>
    </contour>
  </outline>
</glyph>
<glyph name="w" format="2">
  <advance width="780"/>
  <unicode hex="0077"/>
  <outline>
    <contour>
      <point x="193" y="0" type="line"/>
      <point x="265" y="0" type="line"/>
      <point x="384" y="414" type="line"/>
      <point x="390" y="446" type="line"/>
      <point x="396" y="414" type="line"/>
      <point x="515" y="0" type="line"/>
      <point x="587" y="0" type="line"/>
      <point x="750" y="520" type="line"/>
      <point x="675" y="520" type="line"/>
      <point x="558" y="120" type="line"/>
      <point x="551" y="87" type="line"/>
      <point x="544" y="120" type="line"/>
      <point x="427" y="520" type="line"/>
      <point x="353" y="520" type="line"/>
      <point x="236" y="120" type="line"/>
      <point x="229" y="87" type="line"/>
      <point x="222" y="120" type="line"/>
      <point x="105" y="520" type="line"/>
      <point x="30" y="520" type="line"/>
    </contour>
  </outline>
</glyph>
<glyph name="x" format="2">
  <advance width="520"/>
  <unicode hex="0078"/>
  <outline>
    <contour>
      <point x="30" y="0" type="line"/>
      <point x="111" y="0" type="line"/>
      <point x="248" y="192" type="line"/>
      <point x="262" y="222" type="line"/>
      <point x="276" y="192" type="line"/>
      <point x="409" y="0" type="line"/>
      <point x="490" y="0" type="line"/>
      <point x="303" y="270" type="line"/>
      <point x="480" y="520" type="line"/>
      <point x="399" y="520" type="line"/>
      <point x="277" y="347" type="line"/>
      <point x="263" y="318" type="line"/>
      <point x="250" y="347" type="line"/>
      <point x="131" y="520" type="line"/>
      <point x="50" y="520" type="line"/>
      <point x="222" y="270" type="line"/>
    </contour>
  </outline>
</glyph>
<glyph name="y" format="2">
  <advance width="520"/>
  <unicode hex="0079"/>
  <outline>
    <contour>
      <point x="51" y="-167" type="line"/>
      <point x="68" y="-178"/>
      <point x="97" y="-190"/>
      <point x="130" y="-190" type="curve" smooth="yes"/>
      <point x="155" y="-190"/>
      <point x="205" y="-182"/>
      <point x="230" y="-120" type="curve" smooth="yes"/>
      <point x="490" y="520" type="line"/>
      <point x="410" y="520" type="line"/>
      <point x="274" y="148" type="line"/>
      <point x="260" y="100" type="line"/>
      <point x="246" y="148" type="line"/>
      <point x="110" y="520" type="line"/>
      <point x="30" y="520" type="line"/>
      <point x="220" y="20" type="line"/>
      <point x="173" y="-92" type="line" smooth="yes"/>
      <point x="162" y="-117"/>
      <point x="144" y="-132"/>
      <point x="123" y="-132" type="curve" smooth="yes"/>
      <point x="90" y="-132"/>
      <point x="68" y="-114"/>
      <point x="68" y="-114" type="curve"/>
    </contour>
  </outline>
</glyph>
<glyph name="z" format="2">
  <advance width="490"/>
  <unicode hex="007A"/>
  <outline>
    <contour>
      <point x="50" y="0" type="line"/>
      <point x="440" y="0" type="line"/>
      <point x="440" y="60" type="line"/>
      <point x="130" y="60" type="line"/>
      <point x="440" y="455" type="line"/>
      <point x="440" y="520" type="line"/>
      <point x="50" y="520" type="line"/>
      <point x="50" y="460" type="line"/>
      <point x="360" y="460" type="line"/>
      <point x="50" y="65" type="line"/>
    </contour>
  </outline>
</glyph>
<glyph name="braceleft" format="2">
  <advance width="390"/>
  <unicode hex="007B"/>
  <outline>
    <contour>
      <point x="50" y="360" type="line"/>
      <point x="50" y="320" type="line"/>
      <point x="120" y="290" type="line"/>
      <point x="120" y="189"/>
      <point x="147" y="79"/>
      <point x="170" y="-20" type="curve"/>
      <point x="208" y="-22"/>
      <point x="297" y="-85"/>
      <point x="330" y="-110" type="curve"/>
      <point x="360" y="-70" type="line"/>
      <point x="230" y="20" type="line"/>
      <point x="206" y="110"/>
      <point x="190" y="207"/>
      <point x="190" y="300" type="curve"/>
      <point x="120" y="340" type="line"/>
      <point x="190" y="380" type="line"/>
      <point x="190" y="476"/>
      <point x="207" y="577"/>
      <point x="230" y="670" type="curve"/>
      <point x="360" y="750" type="line"/>
      <point x="330" y="790" type="line"/>
      <point x="297" y="765"/>
      <point x="208" y="702"/>
      <point x="170" y="700" type="curve"/>
      <point x="147" y="604"/>
      <point x="121" y="498"/>
      <point x="120" y="400" type="curve"/>
    </contour>
  </outline>
</glyph>
<glyph name="bar" format="2">
  <advance width="230"/>
  <unicode hex="007C"/>
  <outline>
    <contour>
      <point x="80" y="-90" type="line"/>
      <point x="150" y="-90" type="line"/>
      <point x="150" y="790" type="line"/>
      <point x="80" y="790" type="line"/>
    </contour>
  </outline>
</glyph>
<glyph name="braceright" format="2">
  <advance width="390"/>
  <unicode hex="007D"/>
  <outline>
    <contour>
      <point x="60" y="790" type="curve"/>
      <point x="30" y="750" type="line"/>
      <point x="160" y="670" type="line"/>
      <point x="160" y="670"/>
      <point x="200" y="510"/>
      <point x="200" y="380" type="curve"/>
      <point x="270" y="340" type="line"/>
      <point x="200" y="300" type="line"/>
      <point x="200" y="170"/>
      <point x="160" y="20"/>
      <point x="160" y="20" type="curve"/>
      <point x="30" y="-70" type="line"/>
      <point x="60" y="-110" type="line"/>
      <point x="60" y="-110"/>
      <point x="180" y="-20"/>
      <point x="220" y="-20" type="curve"/>
      <point x="220" y="-20"/>
      <point x="270" y="200"/>
      <point x="270" y="290" type="curve"/>
      <point x="340" y="320" type="line"/>
      <point x="340" y="360" type="line"/>
      <point x="270" y="400" type="line"/>
      <point x="270" y="490"/>
      <point x="220" y="700"/>
      <point x="220" y="700" type="curve"/>
      <point x="180" y="700"/>
      <point x="72" y="781"/>
    </contour>
  </outline>
</glyph>
<glyph name="asciitilde" format="2">
  <advance width="410"/>
  <unicode hex="007E"/>
  <outline>
    <contour>
      <point x="62" y="581" type="line"/>
      <point x="66" y="593"/>
      <point x="82" y="641"/>
      <point x="132" y="641" type="curve" smooth="yes"/>
      <point x="189" y="641"/>
      <point x="222" y="571"/>
      <point x="282" y="571" type="curve" smooth="yes"/>
      <point x="342" y="571"/>
      <point x="370" y="616"/>
      <point x="387" y="646" type="curve"/>
      <point x="342" y="691" type="line"/>
      <point x="332" y="666"/>
      <point x="312" y="631"/>
      <point x="282" y="631" type="curve" smooth="yes"/>
      <point x="242" y="631"/>
      <point x="192" y="701"/>
      <point x="132" y="701" type="curve" smooth="yes"/>
      <point x="72" y="701"/>
      <point x="39" y="659"/>
      <point x="22" y="626" type="curve"/>
    </contour>
  </outline>
</glyph>
<glyph name="exclamdown" format="2">
  <advance width="260"/>
  <unicode hex="00A1"/>
  <outline>
    <contour>
      <point x="90" y="-140" type="line"/>
      <point x="170" y="-140" type="line"/>
      <point x="170" y="270" type="line"/>
      <point x="150" y="410" type="line"/>
      <point x="110" y="410" type="line"/>
      <point x="90" y="270" type="line"/>
    </contour>
    <contour>
      <point x="90" y="480" type="line"/>
      <point x="170" y="480" type="line"/>
      <point x="170" y="580" type="line"/>
      <point x="90" y="580" type="line"/>
    </contour>
  </outline>
</glyph>
<glyph name="cent" format="2">
  <advance width="570"/>
  <unicode hex="00A2"/>
  <outline>
    <contour>
      <point x="260" y="-120" type="line"/>
      <point x="350" y="-120" type="line"/>
      <point x="340" y="-7" type="line"/>
      <point x="463" y="5"/>
      <point x="510" y="100"/>
      <point x="525" y="150" type="curve"/>
      <point x="465" y="180" type="line"/>
      <point x="445" y="120"/>
      <point x="395" y="50"/>
      <point x="305" y="50" type="curve" smooth="yes"/>
      <point x="215" y="50"/>
      <point x="135" y="120"/>
      <point x="135" y="260" type="curve" smooth="yes"/>
      <point x="135" y="400"/>
      <point x="215" y="470"/>
      <point x="305" y="470" type="curve" smooth="yes"/>
      <point x="395" y="470"/>
      <point x="445" y="400"/>
      <point x="465" y="340" type="curve"/>
      <point x="525" y="370" type="line"/>
      <point x="510" y="420"/>
      <point x="463" y="512"/>
      <point x="340" y="529" type="curve"/>
      <point x="350" y="640" type="line"/>
      <point x="260" y="640" type="line"/>
      <point x="270" y="529" type="line"/>
      <point x="181" y="515"/>
      <point x="60" y="450"/>
      <point x="60" y="260" type="curve" smooth="yes"/>
      <point x="60" y="70"/>
      <point x="184" y="2"/>
      <point x="270" y="-8" type="curve"/>
    </contour>
  </outline>
</glyph>
<glyph name="sterling" format="2">
  <advance width="610"/>
  <unicode hex="00A3"/>
  <outline>
    <contour>
      <point x="43" y="0" type="line"/>
      <point x="396" y="0" type="line" smooth="yes"/>
      <point x="501" y="0"/>
      <point x="542" y="102"/>
      <point x="557" y="178" type="curve"/>
      <point x="490" y="216" type="line"/>
      <point x="475" y="149"/>
      <point x="456" y="67"/>
      <point x="370" y="67" type="curve" smooth="yes"/>
      <point x="125" y="67" type="line"/>
      <point x="125" y="67"/>
      <point x="202" y="206"/>
      <point x="202" y="317" type="curve"/>
      <point x="360" y="317" type="line"/>
      <point x="360" y="384" type="line"/>
      <point x="197" y="384" type="line"/>
      <point x="178" y="432"/>
      <point x="154" y="494"/>
      <point x="154" y="528" type="curve" smooth="yes"/>
      <point x="154" y="566"/>
      <point x="182" y="662"/>
      <point x="307" y="662" type="curve" smooth="yes"/>
      <point x="432" y="662"/>
      <point x="461" y="566"/>
      <point x="470" y="509" type="curve"/>
      <point x="542" y="538" type="line"/>
      <point x="533" y="614"/>
      <point x="477" y="730"/>
      <point x="309" y="730" type="curve" smooth="yes"/>
      <point x="141" y="730"/>
      <point x="82" y="624"/>
      <point x="82" y="528" type="curve" smooth="yes"/>
      <point x="82" y="461"/>
      <point x="115" y="413"/>
      <point x="125" y="384" type="curve"/>
      <point x="43" y="384" type="line"/>
      <point x="43" y="317" type="line"/>
      <point x="130" y="317" type="line"/>
      <point x="130" y="202"/>
      <point x="48" y="67"/>
      <point x="43" y="67" type="curve"/>
    </contour>
  </outline>
</glyph>
<glyph name="currency" format="2">
  <advance width="460"/>
  <unicode hex="00A4"/>
  <outline>
    <contour>
      <point x="90" y="100" type="line"/>
      <point x="130" y="140" type="line"/>
      <point x="130" y="140"/>
      <point x="160" y="110"/>
      <point x="230" y="110" type="curve" smooth="yes"/>
      <point x="300" y="110"/>
      <point x="330" y="140"/>
      <point x="330" y="140" type="curve"/>
      <point x="370" y="100" type="line"/>
      <point x="410" y="140" type="line"/>
      <point x="370" y="180" type="line"/>
      <point x="370" y="180"/>
      <point x="410" y="220"/>
      <point x="410" y="290" type="curve" smooth="yes"/>
      <point x="410" y="360"/>
      <point x="370" y="400"/>
      <point x="370" y="400" type="curve"/>
      <point x="410" y="440" type="line"/>
      <point x="370" y="480" type="line"/>
      <point x="330" y="440" type="line"/>
      <point x="330" y="440"/>
      <point x="300" y="470"/>
      <point x="230" y="470" type="curve" smooth="yes"/>
      <point x="160" y="470"/>
      <point x="130" y="440"/>
      <point x="130" y="440" type="curve"/>
      <point x="90" y="480" type="line"/>
      <point x="50" y="440" type="line"/>
      <point x="90" y="400" type="line"/>
      <point x="90" y="400"/>
      <point x="50" y="370"/>
      <point x="50" y="290" type="curve" smooth="yes"/>
      <point x="50" y="220"/>
      <point x="90" y="180"/>
      <point x="90" y="180" type="curve"/>
      <point x="50" y="140" type="line"/>
    </contour>
    <contour>
      <point x="110" y="290" type="curve" smooth="yes"/>
      <point x="110" y="356"/>
      <point x="164" y="410"/>
      <point x="230" y="410" type="curve" smooth="yes"/>
      <point x="296" y="410"/>
      <point x="350" y="356"/>
      <point x="350" y="290" type="curve" smooth="yes"/>
      <point x="350" y="224"/>
      <point x="296" y="170"/>
      <point x="230" y="170" type="curve" smooth="yes"/>
      <point x="164" y="170"/>
      <point x="110" y="224"/>
    </contour>
  </outline>
</glyph>
<glyph name="yen" format="2">
  <advance width="663"/>
  <unicode hex="00A5"/>
  <outline>
    <contour>
      <point x="135" y="216" type="line"/>
      <point x="288" y="226" type="line"/>
      <point x="288" y="0" type="line"/>
      <point x="365" y="0" type="line"/>
      <point x="365" y="226" type="line"/>
      <point x="519" y="216" type="line"/>
      <point x="519" y="293" type="line"/>
      <point x="365" y="283" type="line"/>
      <point x="365" y="365" type="line"/>
      <point x="624" y="720" type="line"/>
      <point x="533" y="720" type="line"/>
      <point x="327" y="437" type="line"/>
      <point x="130" y="720" type="line"/>
      <point x="39" y="720" type="line"/>
      <point x="288" y="365" type="line"/>
      <point x="288" y="283" type="line"/>
      <point x="135" y="293" type="line"/>
    </contour>
  </outline>
</glyph>
<glyph name="brokenbar" format="2">
  <advance width="230"/>
  <unicode hex="00A6"/>
  <outline>
    <contour>
      <point x="80" y="-90" type="line"/>
      <point x="150" y="-90" type="line"/>
      <point x="150" y="320" type="line"/>
      <point x="80" y="320" type="line"/>
    </contour>
    <contour>
      <point x="80" y="380" type="line"/>
      <point x="150" y="380" type="line"/>
      <point x="150" y="790" type="line"/>
      <point x="80" y="790" type="line"/>
    </contour>
  </outline>
</glyph>
<glyph name="section" format="2">
  <advance width="600"/>
  <unicode hex="00A7"/>
  <outline>
    <contour>
      <point x="144" y="-96" type="curve"/>
      <point x="85" y="-137" type="line"/>
      <point x="109" y="-193"/>
      <point x="185" y="-270"/>
      <point x="300" y="-270" type="curve" smooth="yes"/>
      <point x="427" y="-270"/>
      <point x="515" y="-199"/>
      <point x="515" y="-79" type="curve" smooth="yes"/>
      <point x="515" y="10"/>
      <point x="444" y="63"/>
      <point x="387" y="83" type="curve"/>
      <point x="459" y="104"/>
      <point x="525" y="191"/>
      <point x="525" y="265" type="curve" smooth="yes"/>
      <point x="525" y="388"/>
      <point x="444" y="447"/>
      <point x="335" y="473" type="curve" smooth="yes"/>
      <point x="220" y="500"/>
      <point x="180" y="563"/>
      <point x="180" y="615" type="curve" smooth="yes"/>
      <point x="180" y="685"/>
      <point x="230" y="730"/>
      <point x="306" y="730" type="curve" smooth="yes"/>
      <point x="391" y="730"/>
      <point x="426" y="667"/>
      <point x="448" y="627" type="curve"/>
      <point x="510" y="668" type="line"/>
      <point x="486" y="724"/>
      <point x="428" y="800"/>
      <point x="306" y="800" type="curve" smooth="yes"/>
      <point x="174" y="800"/>
      <point x="95" y="720"/>
      <point x="95" y="610" type="curve" smooth="yes"/>
      <point x="95" y="536"/>
      <point x="158" y="457"/>
      <point x="215" y="442" type="curve"/>
      <point x="142" y="421"/>
      <point x="85" y="340"/>
      <point x="85" y="266" type="curve" smooth="yes"/>
      <point x="85" y="143"/>
      <point x="162" y="85"/>
      <point x="271" y="58" type="curve" smooth="yes"/>
      <point x="386" y="30"/>
      <point x="435" y="-17"/>
      <point x="435" y="-84" type="curve" smooth="yes"/>
      <point x="435" y="-124"/>
      <point x="398" y="-200"/>
      <point x="300" y="-200" type="curve" smooth="yes"/>
      <point x="212" y="-200"/>
      <point x="172" y="-140"/>
    </contour>
    <contour>
      <point x="316" y="120" type="curve"/>
      <point x="210" y="141"/>
      <point x="165" y="196"/>
      <point x="165" y="273" type="curve" smooth="yes"/>
      <point x="165" y="336"/>
      <point x="227" y="398"/>
      <point x="290" y="411" type="curve"/>
      <point x="395" y="390"/>
      <point x="445" y="334"/>
      <point x="445" y="258" type="curve" smooth="yes"/>
      <point x="445" y="195"/>
      <point x="387" y="134"/>
    </contour>
  </outline>
</glyph>
<glyph name="copyright" format="2">
  <advance width="850"/>
  <unicode hex="00A9"/>
  <outline>
    <component base="C" xScale="0.7504" yScale="0.7506" xOffset="126" yOffset="95"/>
    <contour>
      <point x="40" y="375" type="curve" smooth="yes"/>
      <point x="40" y="162"/>
      <point x="212" y="-10"/>
      <point x="425" y="-10" type="curve" smooth="yes"/>
      <point x="638" y="-10"/>
      <point x="810" y="162"/>
      <point x="810" y="375" type="curve" smooth="yes"/>
      <point x="810" y="588"/>
      <point x="638" y="760"/>
      <point x="425" y="760" type="curve" smooth="yes"/>
      <point x="212" y="760"/>
      <point x="40" y="588"/>
    </contour>
    <contour>
      <point x="86" y="375" type="curve" smooth="yes"/>
      <point x="86" y="563"/>
      <point x="237" y="715"/>
      <point x="425" y="715" type="curve" smooth="yes"/>
      <point x="613" y="715"/>
      <point x="765" y="563"/>
      <point x="765" y="375" type="curve" smooth="yes"/>
      <point x="765" y="187"/>
      <point x="613" y="36"/>
      <point x="425" y="36" type="curve" smooth="yes"/>
      <point x="237" y="36"/>
      <point x="86" y="187"/>
    </contour>
  </outline>
</glyph>
<glyph name="ordfeminine" format="2">
  <advance width="360"/>
  <unicode hex="00AA"/>
  <outline>
    <component base="a" xScale="0.6004" yScale="0.6" xOffset="20" yOffset="430"/>
    <contour>
      <point x="45" y="360" type="line"/>
      <point x="320" y="360" type="line"/>
      <point x="320" y="390" type="line"/>
      <point x="45" y="390" type="line"/>
    </contour>
  </outline>
</glyph>
<glyph name="guillemotleft" format="2">
  <advance width="490"/>
  <unicode hex="00AB"/>
  <outline>
    <contour>
      <point x="50" y="275" type="line"/>
      <point x="280" y="80" type="line"/>
      <point x="300" y="100" type="line"/>
      <point x="125" y="295" type="line"/>
      <point x="300" y="490" type="line"/>
      <point x="280" y="510" type="line"/>
      <point x="50" y="315" type="line"/>
    </contour>
    <contour>
      <point x="200" y="275" type="line"/>
      <point x="430" y="80" type="line"/>
      <point x="450" y="100" type="line"/>
      <point x="275" y="295" type="line"/>
      <point x="450" y="490" type="line"/>
      <point x="430" y="510" type="line"/>
      <point x="200" y="315" type="line"/>
    </contour>
  </outline>
</glyph>
<glyph name="logicalnot" format="2">
  <advance width="420"/>
  <unicode hex="00AC"/>
  <outline>
    <contour>
      <point x="50" y="290" type="line"/>
      <point x="300" y="290" type="line"/>
      <point x="300" y="170" type="line"/>
      <point x="360" y="170" type="line"/>
      <point x="360" y="350" type="line"/>
      <point x="50" y="350" type="line"/>
    </contour>
  </outline>
</glyph>
<glyph name="registered" format="2">
  <advance width="850"/>
  <unicode hex="00AE"/>
  <outline>
    <component base="R" xScale="0.7" yScale="0.7" xOffset="185" yOffset="112"/>
    <contour>
      <point x="40" y="375" type="curve" smooth="yes"/>
      <point x="40" y="162"/>
      <point x="212" y="-10"/>
      <point x="425" y="-10" type="curve" smooth="yes"/>
      <point x="638" y="-10"/>
      <point x="810" y="162"/>
      <point x="810" y="375" type="curve" smooth="yes"/>
      <point x="810" y="588"/>
      <point x="638" y="760"/>
      <point x="425" y="760" type="curve" smooth="yes"/>
      <point x="212" y="760"/>
      <point x="40" y="588"/>
    </contour>
    <contour>
      <point x="86" y="375" type="curve" smooth="yes"/>
      <point x="86" y="563"/>
      <point x="237" y="715"/>
      <point x="425" y="715" type="curve" smooth="yes"/>
      <point x="613" y="715"/>
      <point x="765" y="563"/>
      <point x="765" y="375" type="curve" smooth="yes"/>
      <point x="765" y="187"/>
      <point x="613" y="36"/>
      <point x="425" y="36" type="curve" smooth="yes"/>
      <point x="237" y="36"/>
      <point x="86" y="187"/>
    </contour>
  </outline>
</glyph>
<glyph name="degree" format="2">
  <advance width="440"/>
  <unicode hex="00B0"/>
  <outline>
    <contour>
      <point x="220" y="470" type="curve" smooth="yes"/>
      <point x="160" y="470"/>
      <point x="110" y="525"/>
      <point x="110" y="585" type="curve" smooth="yes"/>
      <point x="110" y="645"/>
      <point x="160" y="700"/>
      <point x="220" y="700" type="curve" smooth="yes"/>
      <point x="280" y="700"/>
      <point x="330" y="645"/>
      <point x="330" y="585" type="curve" smooth="yes"/>
      <point x="330" y="525"/>
      <point x="280" y="470"/>
    </contour>
    <contour>
      <point x="220" y="420" type="curve" smooth="yes"/>
      <point x="308" y="420"/>
      <point x="380" y="495"/>
      <point x="380" y="585" type="curve" smooth="yes"/>
      <point x="380" y="675"/>
      <point x="308" y="750"/>
      <point x="220" y="750" type="curve" smooth="yes"/>
      <point x="132" y="750"/>
      <point x="60" y="675"/>
      <point x="60" y="585" type="curve" smooth="yes"/>
      <point x="60" y="495"/>
      <point x="132" y="420"/>
    </contour>
  </outline>
</glyph>
<glyph name="plusminus" format="2">
  <advance width="480"/>
  <unicode hex="00B1"/>
  <outline>
    <component base="plus" xOffset="10"/>
    <contour>
      <point x="30" y="0" type="line"/>
      <point x="450" y="0" type="line"/>
      <point x="450" y="60" type="line"/>
      <point x="30" y="60" type="line"/>
    </contour>
  </outline>
</glyph>
<glyph name="micro" format="2">
  <advance width="550"/>
  <unicode hex="00B5"/>
  <outline>
    <contour>
      <point x="20" y="-100" type="curve"/>
      <point x="70" y="-145" type="line"/>
      <point x="75" y="-126"/>
      <point x="116" y="-56"/>
      <point x="128" y="29" type="curve"/>
      <point x="159" y="4"/>
      <point x="201" y="-10"/>
      <point x="250" y="-10" type="curve" smooth="yes"/>
      <point x="347" y="-10"/>
      <point x="400" y="40"/>
      <point x="420" y="91" type="curve"/>
      <point x="420" y="0" type="line"/>
      <point x="490" y="0" type="line"/>
      <point x="490" y="520" type="line"/>
      <point x="420" y="520" type="line"/>
      <point x="420" y="175" type="line"/>
      <point x="410" y="130"/>
      <point x="360" y="50"/>
      <point x="260" y="50" type="curve" smooth="yes"/>
      <point x="170" y="50"/>
      <point x="140" y="110"/>
      <point x="140" y="175" type="curve" smooth="yes"/>
      <point x="140" y="520" type="line"/>
      <point x="70" y="520" type="line"/>
      <point x="70" y="130" type="line"/>
      <point x="70" y="30"/>
      <point x="30" y="-65"/>
    </contour>
  </outline>
</glyph>
<glyph name="paragraph" format="2">
  <advance width="590"/>
  <unicode hex="00B6"/>
  <outline>
    <contour>
      <point x="420" y="-120" type="line"/>
      <point x="500" y="-120" type="line"/>
      <point x="500" y="680" type="line"/>
      <point x="540" y="680" type="line"/>
      <point x="540" y="750" type="line"/>
      <point x="250" y="750" type="line" smooth="yes"/>
      <point x="150" y="750"/>
      <point x="40" y="650"/>
      <point x="40" y="525" type="curve" smooth="yes"/>
      <point x="40" y="400"/>
      <point x="150" y="300"/>
      <point x="250" y="300" type="curve" smooth="yes"/>
      <point x="420" y="300" type="line"/>
    </contour>
  </outline>
</glyph>
<glyph name="periodcentered" format="2">
  <advance width="230"/>
  <unicode hex="00B7"/>
  <outline>
    <contour>
      <point x="70" y="255" type="line"/>
      <point x="160" y="255" type="line"/>
      <point x="160" y="355" type="line"/>
      <point x="70" y="355" type="line"/>
    </contour>
  </outline>
</glyph>
<glyph name="guillemotright" format="2">
  <advance width="490"/>
  <unicode hex="00BB"/>
  <outline>
    <contour>
      <point x="60" y="80" type="line"/>
      <point x="290" y="275" type="line"/>
      <point x="290" y="315" type="line"/>
      <point x="60" y="510" type="line"/>
      <point x="40" y="490" type="line"/>
      <point x="215" y="295" type="line"/>
      <point x="40" y="100" type="line"/>
    </contour>
    <contour>
      <point x="210" y="80" type="line"/>
      <point x="440" y="275" type="line"/>
      <point x="440" y="315" type="line"/>
      <point x="210" y="510" type="line"/>
      <point x="190" y="490" type="line"/>
      <point x="365" y="295" type="line"/>
      <point x="190" y="100" type="line"/>
    </contour>
  </outline>
</glyph>
<glyph name="onequarter" format="2">
  <advance width="620"/>
  <unicode hex="00BC"/>
  <outline>
    <component base="one" xScale="0.6" yScale="0.6" xOffset="-70" yOffset="300"/>
    <component base="four" xScale="0.6" yScale="0.6" xOffset="255"/>
    <contour>
      <point x="60" y="100" type="line"/>
      <point x="110" y="100" type="line"/>
      <point x="530" y="670" type="line"/>
      <point x="480" y="670" type="line"/>
    </contour>
  </outline>
</glyph>
<glyph name="onehalf" format="2">
  <advance width="720"/>
  <unicode hex="00BD"/>
  <outline>
    <component base="one" xScale="0.6" yScale="0.6" xOffset="-70" yOffset="300"/>
    <component base="two" xScale="0.6" yScale="0.6" xOffset="335"/>
    <contour>
      <point x="70" y="100" type="line"/>
      <point x="120" y="100" type="line"/>
      <point x="540" y="670" type="line"/>
      <point x="490" y="670" type="line"/>
    </contour>
  </outline>
</glyph>
<glyph name="threequarters" format="2">
  <advance width="720"/>
  <unicode hex="00BE"/>
  <outline>
    <component base="three" xScale="0.6" yScale="0.6" xOffset="-8" yOffset="300"/>
    <component base="four" xScale="0.6" yScale="0.6" xOffset="345"/>
    <contour>
      <point x="170" y="100" type="line"/>
      <point x="220" y="100" type="line"/>
      <point x="640" y="670" type="line"/>
      <point x="590" y="670" type="line"/>
    </contour>
  </outline>
</glyph>
<glyph name="questiondown" format="2">
  <advance width="505"/>
  <unicode hex="00BF"/>
  <outline>
    <contour>
      <point x="245" y="480" type="line"/>
      <point x="335" y="480" type="line"/>
      <point x="335" y="580" type="line"/>
      <point x="245" y="580" type="line"/>
    </contour>
    <contour>
      <point x="39" y="42" type="curve" smooth="yes"/>
      <point x="39" y="-34"/>
      <point x="102" y="-150"/>
      <point x="250" y="-150" type="curve" smooth="yes"/>
      <point x="399" y="-150"/>
      <point x="452" y="-39"/>
      <point x="466" y="28" type="curve"/>
      <point x="404" y="52" type="line"/>
      <point x="385" y="-20"/>
      <point x="349" y="-87"/>
      <point x="250" y="-87" type="curve" smooth="yes"/>
      <point x="152" y="-87"/>
      <point x="109" y="-8"/>
      <point x="109" y="42" type="curve" smooth="yes"/>
      <point x="109" y="110"/>
      <point x="138" y="143"/>
      <point x="211" y="187" type="curve" smooth="yes"/>
      <point x="294" y="237"/>
      <point x="335" y="302"/>
      <point x="342" y="350" type="curve"/>
      <point x="284" y="383" type="line"/>
      <point x="270" y="330"/>
      <point x="244" y="277"/>
      <point x="175" y="237" type="curve" smooth="yes"/>
      <point x="94" y="191"/>
      <point x="39" y="133"/>
    </contour>
  </outline>
</glyph>
<glyph name="Agrave" format="2">
  <advance width="670"/>
  <unicode hex="00C0"/>
  <outline>
    <component base="A"/>
    <contour>
      <point x="215" y="875" type="line"/>
      <point x="320" y="770" type="line"/>
      <point x="390" y="785" type="line"/>
      <point x="315" y="875" type="line"/>
    </contour>
  </outline>
</glyph>
<glyph name="Aacute" format="2">
  <advance width="670"/>
  <unicode hex="00C1"/>
  <outline>
    <component base="A"/>
    <contour>
      <point x="280" y="785" type="line"/>
      <point x="350" y="770" type="line"/>
      <point x="455" y="875" type="line"/>
      <point x="355" y="875" type="line"/>
    </contour>
  </outline>
</glyph>
<glyph name="Acircumflex" format="2">
  <advance width="670"/>
  <unicode hex="00C2"/>
  <outline>
    <component base="A"/>
    <contour>
      <point x="235" y="775" type="line"/>
      <point x="285" y="755" type="line"/>
      <point x="335" y="835" type="line"/>
      <point x="385" y="755" type="line"/>
      <point x="435" y="775" type="line"/>
      <point x="355" y="885" type="line"/>
      <point x="315" y="885" type="line"/>
    </contour>
  </outline>
</glyph>
<glyph name="Atilde" format="2">
  <advance width="670"/>
  <unicode hex="00C3"/>
  <outline>
    <component base="A"/>
    <contour>
      <point x="164" y="805" type="curve"/>
      <point x="204" y="760" type="line"/>
      <point x="208" y="772"/>
      <point x="224" y="820"/>
      <point x="274" y="820" type="curve" smooth="yes"/>
      <point x="331" y="820"/>
      <point x="364" y="750"/>
      <point x="424" y="750" type="curve" smooth="yes"/>
      <point x="484" y="750"/>
      <point x="512" y="795"/>
      <point x="529" y="825" type="curve"/>
      <point x="484" y="870" type="line"/>
      <point x="474" y="845"/>
      <point x="454" y="810"/>
      <point x="424" y="810" type="curve" smooth="yes"/>
      <point x="384" y="810"/>
      <point x="334" y="880"/>
      <point x="274" y="880" type="curve" smooth="yes"/>
      <point x="214" y="880"/>
      <point x="181" y="838"/>
    </contour>
  </outline>
</glyph>
<glyph name="Adieresis" format="2">
  <advance width="670"/>
  <unicode hex="00C4"/>
  <outline>
    <component base="A"/>
    <contour>
      <point x="125" y="720" type="line"/>
      <point x="200" y="720" type="line"/>
      <point x="200" y="800" type="line"/>
      <point x="125" y="800" type="line"/>
    </contour>
    <contour>
      <point x="470" y="720" type="line"/>
      <point x="545" y="720" type="line"/>
      <point x="545" y="800" type="line"/>
      <point x="470" y="800" type="line"/>
    </contour>
  </outline>
</glyph>
<glyph name="Aring" format="2">
  <advance width="670"/>
  <unicode hex="00C5"/>
  <outline>
    <component base="A"/>
    <contour>
      <point x="265" y="820" type="curve" smooth="yes"/>
      <point x="265" y="782"/>
      <point x="297" y="750"/>
      <point x="335" y="750" type="curve" smooth="yes"/>
      <point x="373" y="750"/>
      <point x="405" y="782"/>
      <point x="405" y="820" type="curve" smooth="yes"/>
      <point x="405" y="858"/>
      <point x="373" y="890"/>
      <point x="335" y="890" type="curve" smooth="yes"/>
      <point x="297" y="890"/>
      <point x="265" y="858"/>
    </contour>
    <contour>
      <point x="290" y="820" type="curve" smooth="yes"/>
      <point x="290" y="844"/>
      <point x="311" y="865"/>
      <point x="335" y="865" type="curve" smooth="yes"/>
      <point x="359" y="865"/>
      <point x="380" y="844"/>
      <point x="380" y="820" type="curve" smooth="yes"/>
      <point x="380" y="796"/>
      <point x="359" y="775"/>
      <point x="335" y="775" type="curve" smooth="yes"/>
      <point x="311" y="775"/>
      <point x="290" y="796"/>
    </contour>
  </outline>
</glyph>
<glyph name="AE" format="2">
  <advance width="885"/>
  <unicode hex="00C6"/>
  <outline>
    <contour>
      <point x="10" y="0" type="line"/>
      <point x="87" y="0" type="line"/>
      <point x="184" y="206" type="line"/>
      <point x="375" y="206" type="line"/>
      <point x="375" y="0" type="line"/>
      <point x="820" y="0" type="line"/>
      <point x="820" y="67" type="line"/>
      <point x="453" y="67" type="line"/>
      <point x="453" y="346" type="line"/>
      <point x="780" y="346" type="line"/>
      <point x="780" y="413" type="line"/>
      <point x="453" y="413" type="line"/>
      <point x="453" y="653" type="line"/>
      <point x="810" y="653" type="line"/>
      <point x="810" y="720" type="line"/>
      <point x="346" y="720" type="line"/>
    </contour>
    <contour>
      <point x="214" y="274" type="line"/>
      <point x="362" y="591" type="line"/>
      <point x="375" y="627" type="line"/>
      <point x="375" y="274" type="line"/>
    </contour>
  </outline>
</glyph>
<glyph name="Ccedilla" format="2">
  <advance width="740"/>
  <unicode hex="00C7"/>
  <outline>
    <contour>
      <point x="251" y="-116" type="line"/>
      <point x="270" y="-143"/>
      <point x="318" y="-177"/>
      <point x="376" y="-177" type="curve" smooth="yes"/>
      <point x="433" y="-177"/>
      <point x="500" y="-141"/>
      <point x="500" y="-79" type="curve" smooth="yes"/>
      <point x="500" y="-35"/>
      <point x="473" y="-14"/>
      <point x="452" y="-7" type="curve"/>
      <point x="598" y="12"/>
      <point x="675" y="121"/>
      <point x="697" y="178" type="curve"/>
      <point x="632" y="213" type="line"/>
      <point x="611" y="159"/>
      <point x="546" y="58"/>
      <point x="397" y="58" type="curve" smooth="yes"/>
      <point x="248" y="58"/>
      <point x="147" y="182"/>
      <point x="147" y="360" type="curve" smooth="yes"/>
      <point x="147" y="538"/>
      <point x="248" y="662"/>
      <point x="397" y="662" type="curve" smooth="yes"/>
      <point x="542" y="662"/>
      <point x="611" y="561"/>
      <point x="632" y="507" type="curve"/>
      <point x="697" y="542" type="line"/>
      <point x="673" y="605"/>
      <point x="584" y="730"/>
      <point x="397" y="730" type="curve" smooth="yes"/>
      <point x="210" y="730"/>
      <point x="65" y="595"/>
      <point x="65" y="360" type="curve" smooth="yes"/>
      <point x="65" y="138"/>
      <point x="189" y="6"/>
      <point x="364" y="-8" type="curve"/>
      <point x="424" y="-18"/>
      <point x="432" y="-49"/>
      <point x="432" y="-68" type="curve" smooth="yes"/>
      <point x="432" y="-97"/>
      <point x="405" y="-119"/>
      <point x="372" y="-119" type="curve" smooth="yes"/>
      <point x="338" y="-119"/>
      <point x="315" y="-99"/>
      <point x="304" y="-84" type="curve"/>
    </contour>
  </outline>
</glyph>
<glyph name="Egrave" format="2">
  <advance width="590"/>
  <unicode hex="00C8"/>
  <outline>
    <component base="E"/>
    <contour>
      <point x="175" y="874" type="line"/>
      <point x="280" y="769" type="line"/>
      <point x="350" y="784" type="line"/>
      <point x="275" y="874" type="line"/>
    </contour>
  </outline>
</glyph>
<glyph name="Eacute" format="2">
  <advance width="590"/>
  <unicode hex="00C9"/>
  <outline>
    <component base="E"/>
    <contour>
      <point x="240" y="795" type="line"/>
      <point x="310" y="780" type="line"/>
      <point x="415" y="885" type="line"/>
      <point x="315" y="885" type="line"/>
    </contour>
  </outline>
</glyph>
<glyph name="Ecircumflex" format="2">
  <advance width="590"/>
  <unicode hex="00CA"/>
  <outline>
    <component base="E"/>
    <contour>
      <point x="195" y="775" type="line"/>
      <point x="245" y="755" type="line"/>
      <point x="295" y="835" type="line"/>
      <point x="345" y="755" type="line"/>
      <point x="395" y="775" type="line"/>
      <point x="315" y="885" type="line"/>
      <point x="275" y="885" type="line"/>
    </contour>
  </outline>
</glyph>
<glyph name="Edieresis" format="2">
  <advance width="590"/>
  <unicode hex="00CB"/>
  <outline>
    <component base="E"/>
    <contour>
      <point x="125" y="800" type="line"/>
      <point x="200" y="800" type="line"/>
      <point x="200" y="880" type="line"/>
      <point x="125" y="880" type="line"/>
    </contour>
    <contour>
      <point x="400" y="800" type="line"/>
      <point x="475" y="800" type="line"/>
      <point x="475" y="880" type="line"/>
      <point x="400" y="880" type="line"/>
    </contour>
  </outline>
</glyph>
<glyph name="Igrave" format="2">
  <advance width="258"/>
  <unicode hex="00CC"/>
  <outline>
    <component base="I"/>
    <contour>
      <point x="5" y="875" type="line"/>
      <point x="110" y="770" type="line"/>
      <point x="180" y="785" type="line"/>
      <point x="105" y="875" type="line"/>
    </contour>
  </outline>
</glyph>
<glyph name="Iacute" format="2">
  <advance width="258"/>
  <unicode hex="00CD"/>
  <outline>
    <component base="I"/>
    <contour>
      <point x="78" y="785" type="line"/>
      <point x="148" y="770" type="line"/>
      <point x="253" y="875" type="line"/>
      <point x="153" y="875" type="line"/>
    </contour>
  </outline>
</glyph>
<glyph name="Icircumflex" format="2">
  <advance width="258"/>
  <unicode hex="00CE"/>
  <outline>
    <component base="I"/>
    <contour>
      <point x="29" y="775" type="line"/>
      <point x="79" y="755" type="line"/>
      <point x="129" y="835" type="line"/>
      <point x="179" y="755" type="line"/>
      <point x="229" y="775" type="line"/>
      <point x="149" y="885" type="line"/>
      <point x="109" y="885" type="line"/>
    </contour>
  </outline>
</glyph>
<glyph name="Idieresis" format="2">
  <advance width="258"/>
  <unicode hex="00CF"/>
  <outline>
    <component base="I"/>
    <contour>
      <point x="0" y="790" type="line"/>
      <point x="75" y="790" type="line"/>
      <point x="75" y="870" type="line"/>
      <point x="0" y="870" type="line"/>
    </contour>
    <contour>
      <point x="183" y="790" type="line"/>
      <point x="258" y="790" type="line"/>
      <point x="258" y="870" type="line"/>
      <point x="183" y="870" type="line"/>
    </contour>
  </outline>
</glyph>
<glyph name="Eth" format="2">
  <advance width="720"/>
  <unicode hex="00D0"/>
  <outline>
    <contour>
      <point x="75" y="0" type="line"/>
      <point x="346" y="0" type="line"/>
      <point x="498" y="0"/>
      <point x="655" y="125"/>
      <point x="655" y="360" type="curve" smooth="yes"/>
      <point x="655" y="595"/>
      <point x="498" y="720"/>
      <point x="346" y="720" type="curve" smooth="yes"/>
      <point x="75" y="720" type="line"/>
      <point x="75" y="408" type="line"/>
      <point x="30" y="408" type="line"/>
      <point x="30" y="341" type="line"/>
      <point x="75" y="341" type="line"/>
    </contour>
    <contour>
      <point x="153" y="67" type="line"/>
      <point x="153" y="341" type="line"/>
      <point x="258" y="341" type="line"/>
      <point x="258" y="408" type="line"/>
      <point x="153" y="408" type="line"/>
      <point x="153" y="653" type="line"/>
      <point x="346" y="653" type="line" smooth="yes"/>
      <point x="440" y="653"/>
      <point x="573" y="557"/>
      <point x="573" y="360" type="curve" smooth="yes"/>
      <point x="573" y="154"/>
      <point x="442" y="67"/>
      <point x="346" y="67" type="curve" smooth="yes"/>
    </contour>
  </outline>
</glyph>
<glyph name="Ntilde" format="2">
  <advance width="690"/>
  <unicode hex="00D1"/>
  <outline>
    <component base="N"/>
    <contour>
      <point x="153" y="805" type="curve"/>
      <point x="193" y="760" type="line"/>
      <point x="197" y="772"/>
      <point x="213" y="820"/>
      <point x="263" y="820" type="curve" smooth="yes"/>
      <point x="320" y="820"/>
      <point x="353" y="750"/>
      <point x="413" y="750" type="curve" smooth="yes"/>
      <point x="473" y="750"/>
      <point x="501" y="795"/>
      <point x="518" y="825" type="curve"/>
      <point x="473" y="870" type="line"/>
      <point x="463" y="845"/>
      <point x="443" y="810"/>
      <point x="413" y="810" type="curve" smooth="yes"/>
      <point x="373" y="810"/>
      <point x="323" y="880"/>
      <point x="263" y="880" type="curve" smooth="yes"/>
      <point x="203" y="880"/>
      <point x="170" y="838"/>
    </contour>
  </outline>
</glyph>
<glyph name="Ograve" format="2">
  <advance width="810"/>
  <unicode hex="00D2"/>
  <outline>
    <component base="O"/>
    <contour>
      <point x="285" y="875" type="line"/>
      <point x="390" y="770" type="line"/>
      <point x="460" y="785" type="line"/>
      <point x="385" y="875" type="line"/>
    </contour>
  </outline>
</glyph>
<glyph name="Oacute" format="2">
  <advance width="810"/>
  <unicode hex="00D3"/>
  <outline>
    <component base="O"/>
    <contour>
      <point x="350" y="785" type="line"/>
      <point x="390" y="770" type="line"/>
      <point x="525" y="875" type="line"/>
      <point x="425" y="875" type="line"/>
    </contour>
  </outline>
</glyph>
<glyph name="Ocircumflex" format="2">
  <advance width="830"/>
  <unicode hex="00D4"/>
  <outline>
    <contour>
      <point x="415" y="60" type="curve" smooth="yes"/>
      <point x="265" y="60"/>
      <point x="150" y="180"/>
      <point x="150" y="375" type="curve" smooth="yes"/>
      <point x="150" y="570"/>
      <point x="265" y="690"/>
      <point x="415" y="690" type="curve" smooth="yes"/>
      <point x="575" y="690"/>
      <point x="680" y="570"/>
      <point x="680" y="375" type="curve" smooth="yes"/>
      <point x="680" y="180"/>
      <point x="565" y="60"/>
    </contour>
    <contour>
      <point x="415" y="-10" type="curve" smooth="yes"/>
      <point x="605" y="-10"/>
      <point x="765" y="120"/>
      <point x="765" y="375" type="curve" smooth="yes"/>
      <point x="765" y="630"/>
      <point x="605" y="760"/>
      <point x="415" y="760" type="curve" smooth="yes"/>
      <point x="225" y="760"/>
      <point x="65" y="630"/>
      <point x="65" y="375" type="curve" smooth="yes"/>
      <point x="65" y="120"/>
      <point x="225" y="-10"/>
    </contour>
    <contour>
      <point x="315" y="785" type="line"/>
      <point x="365" y="765" type="line"/>
      <point x="415" y="845" type="line"/>
      <point x="465" y="765" type="line"/>
      <point x="515" y="785" type="line"/>
      <point x="435" y="895" type="line"/>
      <point x="395" y="895" type="line"/>
    </contour>
  </outline>
</glyph>
<glyph name="Otilde" format="2">
  <advance width="810"/>
  <unicode hex="00D5"/>
  <outline>
    <component base="O"/>
    <contour>
      <point x="240" y="805" type="curve"/>
      <point x="280" y="760" type="line"/>
      <point x="284" y="772"/>
      <point x="300" y="820"/>
      <point x="350" y="820" type="curve" smooth="yes"/>
      <point x="407" y="820"/>
      <point x="440" y="750"/>
      <point x="500" y="750" type="curve" smooth="yes"/>
      <point x="560" y="750"/>
      <point x="588" y="795"/>
      <point x="605" y="825" type="curve"/>
      <point x="560" y="870" type="line"/>
      <point x="550" y="845"/>
      <point x="530" y="810"/>
      <point x="500" y="810" type="curve" smooth="yes"/>
      <point x="460" y="810"/>
      <point x="410" y="880"/>
      <point x="350" y="880" type="curve" smooth="yes"/>
      <point x="290" y="880"/>
      <point x="257" y="838"/>
    </contour>
  </outline>
</glyph>
<glyph name="Odieresis" format="2">
  <advance width="810"/>
  <unicode hex="00D6"/>
  <outline>
    <component base="O"/>
    <contour>
      <point x="150" y="740" type="line"/>
      <point x="225" y="740" type="line"/>
      <point x="225" y="820" type="line"/>
      <point x="150" y="820" type="line"/>
    </contour>
    <contour>
      <point x="585" y="740" type="line"/>
      <point x="660" y="740" type="line"/>
      <point x="660" y="820" type="line"/>
      <point x="585" y="820" type="line"/>
    </contour>
  </outline>
</glyph>
<glyph name="multiply" format="2">
  <advance width="420"/>
  <unicode hex="00D7"/>
  <outline>
    <contour>
      <point x="100" y="150" type="line"/>
      <point x="210" y="260" type="line"/>
      <point x="320" y="150" type="line"/>
      <point x="380" y="210" type="line"/>
      <point x="270" y="320" type="line"/>
      <point x="380" y="430" type="line"/>
      <point x="320" y="490" type="line"/>
      <point x="210" y="380" type="line"/>
      <point x="100" y="490" type="line"/>
      <point x="40" y="430" type="line"/>
      <point x="150" y="320" type="line"/>
      <point x="40" y="210" type="line"/>
    </contour>
  </outline>
</glyph>
<glyph name="Oslash" format="2">
  <advance width="810"/>
  <unicode hex="00D8"/>
  <outline>
    <contour>
      <point x="112" y="-10" type="line"/>
      <point x="183" y="68" type="line"/>
      <point x="244" y="16"/>
      <point x="322" y="-10"/>
      <point x="405" y="-10" type="curve" smooth="yes"/>
      <point x="588" y="-10"/>
      <point x="745" y="115"/>
      <point x="745" y="360" type="curve" smooth="yes"/>
      <point x="745" y="462"/>
      <point x="718" y="543"/>
      <point x="673" y="603" type="curve"/>
      <point x="745" y="682" type="line"/>
      <point x="697" y="730" type="line"/>
      <point x="626" y="653" type="line"/>
      <point x="566" y="704"/>
      <point x="488" y="730"/>
      <point x="405" y="730" type="curve" smooth="yes"/>
      <point x="223" y="730"/>
      <point x="65" y="605"/>
      <point x="65" y="360" type="curve" smooth="yes"/>
      <point x="65" y="258"/>
      <point x="92" y="177"/>
      <point x="137" y="117" type="curve"/>
      <point x="65" y="38" type="line"/>
    </contour>
    <contour>
      <point x="193" y="178" type="line"/>
      <point x="164" y="226"/>
      <point x="147" y="288"/>
      <point x="147" y="360" type="curve" smooth="yes"/>
      <point x="147" y="547"/>
      <point x="261" y="662"/>
      <point x="405" y="662" type="curve" smooth="yes"/>
      <point x="473" y="662"/>
      <point x="532" y="639"/>
      <point x="576" y="597" type="curve"/>
    </contour>
    <contour>
      <point x="618" y="543" type="line"/>
      <point x="647" y="495"/>
      <point x="663" y="433"/>
      <point x="663" y="360" type="curve" smooth="yes"/>
      <point x="663" y="173"/>
      <point x="549" y="58"/>
      <point x="405" y="58" type="curve" smooth="yes"/>
      <point x="339" y="58"/>
      <point x="280" y="81"/>
      <point x="235" y="125" type="curve"/>
    </contour>
  </outline>
</glyph>
<glyph name="Ugrave" format="2">
  <advance width="680"/>
  <unicode hex="00D9"/>
  <outline>
    <component base="U"/>
    <contour>
      <point x="229" y="875" type="line"/>
      <point x="334" y="770" type="line"/>
      <point x="404" y="785" type="line"/>
      <point x="329" y="875" type="line"/>
    </contour>
  </outline>
</glyph>
<glyph name="Uacute" format="2">
  <advance width="680"/>
  <unicode hex="00DA"/>
  <outline>
    <component base="U"/>
    <contour>
      <point x="285" y="785" type="line"/>
      <point x="355" y="770" type="line"/>
      <point x="460" y="875" type="line"/>
      <point x="360" y="875" type="line"/>
    </contour>
  </outline>
</glyph>
<glyph name="Ucircumflex" format="2">
  <advance width="680"/>
  <unicode hex="00DB"/>
  <outline>
    <component base="U"/>
    <contour>
      <point x="240" y="770" type="line"/>
      <point x="290" y="750" type="line"/>
      <point x="340" y="830" type="line"/>
      <point x="390" y="750" type="line"/>
      <point x="440" y="770" type="line"/>
      <point x="360" y="880" type="line"/>
      <point x="320" y="880" type="line"/>
    </contour>
  </outline>
</glyph>
<glyph name="Udieresis" format="2">
  <advance width="680"/>
  <unicode hex="00DC"/>
  <outline>
    <component base="U"/>
    <contour>
      <point x="110" y="790" type="line"/>
      <point x="185" y="790" type="line"/>
      <point x="185" y="870" type="line"/>
      <point x="110" y="870" type="line"/>
    </contour>
    <contour>
      <point x="495" y="790" type="line"/>
      <point x="570" y="790" type="line"/>
      <point x="570" y="870" type="line"/>
      <point x="495" y="870" type="line"/>
    </contour>
  </outline>
</glyph>
<glyph name="Yacute" format="2">
  <advance width="665"/>
  <unicode hex="00DD"/>
  <outline>
    <component base="Y"/>
    <contour>
      <point x="273" y="785" type="line"/>
      <point x="343" y="770" type="line"/>
      <point x="448" y="875" type="line"/>
      <point x="348" y="875" type="line"/>
    </contour>
  </outline>
</glyph>
<glyph name="Thorn" format="2">
  <advance width="630"/>
  <unicode hex="00DE"/>
  <outline>
    <contour>
      <point x="80" y="0" type="line"/>
      <point x="158" y="0" type="line"/>
      <point x="158" y="173" type="line"/>
      <point x="363" y="173" type="line" smooth="yes"/>
      <point x="459" y="173"/>
      <point x="565" y="240"/>
      <point x="565" y="365" type="curve" smooth="yes"/>
      <point x="565" y="490"/>
      <point x="469" y="557"/>
      <point x="363" y="557" type="curve"/>
      <point x="158" y="557" type="line"/>
      <point x="158" y="720" type="line"/>
      <point x="80" y="720" type="line"/>
    </contour>
    <contour>
      <point x="158" y="240" type="line"/>
      <point x="158" y="490" type="line"/>
      <point x="363" y="490" type="line" smooth="yes"/>
      <point x="439" y="490"/>
      <point x="488" y="436"/>
      <point x="488" y="365" type="curve" smooth="yes"/>
      <point x="488" y="295"/>
      <point x="440" y="240"/>
      <point x="363" y="240" type="curve" smooth="yes"/>
    </contour>
  </outline>
</glyph>
<glyph name="germandbls" format="2">
  <advance width="570"/>
  <unicode hex="00DF"/>
  <outline>
    <contour>
      <point x="75" y="-130" type="line"/>
      <point x="145" y="-130" type="line"/>
      <point x="145" y="65" type="line"/>
      <point x="175" y="15"/>
      <point x="240" y="-10"/>
      <point x="300" y="-10" type="curve" smooth="yes"/>
      <point x="415" y="-10"/>
      <point x="510" y="75"/>
      <point x="510" y="205" type="curve" smooth="yes"/>
      <point x="510" y="342"/>
      <point x="381" y="399"/>
      <point x="335" y="400" type="curve"/>
      <point x="385" y="407"/>
      <point x="475" y="466"/>
      <point x="475" y="573" type="curve" smooth="yes"/>
      <point x="475" y="683"/>
      <point x="400" y="760"/>
      <point x="275" y="760" type="curve" smooth="yes"/>
      <point x="155" y="760"/>
      <point x="75" y="685"/>
      <point x="75" y="580" type="curve" smooth="yes"/>
    </contour>
    <contour>
      <point x="145" y="425" type="line"/>
      <point x="145" y="580" type="line"/>
      <point x="145" y="665"/>
      <point x="205" y="700"/>
      <point x="275" y="700" type="curve" smooth="yes"/>
      <point x="345" y="700"/>
      <point x="405" y="657"/>
      <point x="405" y="570" type="curve" smooth="yes"/>
      <point x="405" y="489"/>
      <point x="343" y="425"/>
      <point x="250" y="425" type="curve" smooth="yes"/>
    </contour>
    <contour>
      <point x="145" y="360" type="line"/>
      <point x="280" y="360" type="line" smooth="yes"/>
      <point x="340" y="360"/>
      <point x="438" y="312"/>
      <point x="438" y="207" type="curve"/>
      <point x="438" y="92"/>
      <point x="350" y="55"/>
      <point x="290" y="55" type="curve" smooth="yes"/>
      <point x="220" y="55"/>
      <point x="155" y="100"/>
      <point x="145" y="150" type="curve"/>
    </contour>
  </outline>
</glyph>
<glyph name="agrave" format="2">
  <advance width="550"/>
  <unicode hex="00E0"/>
  <outline>
    <component base="a"/>
    <contour>
      <point x="180" y="695" type="line"/>
      <point x="285" y="590" type="line"/>
      <point x="355" y="605" type="line"/>
      <point x="280" y="695" type="line"/>
    </contour>
  </outline>
</glyph>
<glyph name="aacute" format="2">
  <advance width="550"/>
  <unicode hex="00E1"/>
  <outline>
    <component base="a"/>
    <contour>
      <point x="225" y="605" type="line"/>
      <point x="295" y="590" type="line"/>
      <point x="400" y="695" type="line"/>
      <point x="300" y="695" type="line"/>
    </contour>
  </outline>
</glyph>
<glyph name="acircumflex" format="2">
  <advance width="550"/>
  <unicode hex="00E2"/>
  <outline>
    <component base="a"/>
    <contour>
      <point x="180" y="600" type="line"/>
      <point x="230" y="580" type="line"/>
      <point x="280" y="660" type="line"/>
      <point x="330" y="580" type="line"/>
      <point x="380" y="600" type="line"/>
      <point x="300" y="710" type="line"/>
      <point x="260" y="710" type="line"/>
    </contour>
  </outline>
</glyph>
<glyph name="atilde" format="2">
  <advance width="550"/>
  <unicode hex="00E3"/>
  <outline>
    <component base="a"/>
    <contour>
      <point x="95" y="630" type="curve"/>
      <point x="135" y="585" type="line"/>
      <point x="139" y="597"/>
      <point x="155" y="645"/>
      <point x="205" y="645" type="curve" smooth="yes"/>
      <point x="262" y="645"/>
      <point x="295" y="575"/>
      <point x="355" y="575" type="curve" smooth="yes"/>
      <point x="415" y="575"/>
      <point x="443" y="620"/>
      <point x="460" y="650" type="curve"/>
      <point x="415" y="695" type="line"/>
      <point x="405" y="670"/>
      <point x="385" y="635"/>
      <point x="355" y="635" type="curve" smooth="yes"/>
      <point x="315" y="635"/>
      <point x="265" y="705"/>
      <point x="205" y="705" type="curve" smooth="yes"/>
      <point x="145" y="705"/>
      <point x="112" y="663"/>
    </contour>
  </outline>
</glyph>
<glyph name="adieresis" format="2">
  <advance width="550"/>
  <unicode hex="00E4"/>
  <outline>
    <component base="a"/>
    <contour>
      <point x="120" y="600" type="line"/>
      <point x="195" y="600" type="line"/>
      <point x="195" y="680" type="line"/>
      <point x="120" y="680" type="line"/>
    </contour>
    <contour>
      <point x="365" y="600" type="line"/>
      <point x="440" y="600" type="line"/>
      <point x="440" y="680" type="line"/>
      <point x="365" y="680" type="line"/>
    </contour>
  </outline>
</glyph>
<glyph name="aring" format="2">
  <advance width="550"/>
  <unicode hex="00E5"/>
  <outline>
    <component base="a"/>
    <contour>
      <point x="235" y="640" type="curve" smooth="yes"/>
      <point x="235" y="664"/>
      <point x="256" y="685"/>
      <point x="280" y="685" type="curve" smooth="yes"/>
      <point x="304" y="685"/>
      <point x="325" y="664"/>
      <point x="325" y="640" type="curve" smooth="yes"/>
      <point x="325" y="616"/>
      <point x="304" y="595"/>
      <point x="280" y="595" type="curve" smooth="yes"/>
      <point x="256" y="595"/>
      <point x="235" y="616"/>
    </contour>
    <contour>
      <point x="210" y="640" type="curve" smooth="yes"/>
      <point x="210" y="602"/>
      <point x="242" y="570"/>
      <point x="280" y="570" type="curve" smooth="yes"/>
      <point x="318" y="570"/>
      <point x="350" y="602"/>
      <point x="350" y="640" type="curve" smooth="yes"/>
      <point x="350" y="678"/>
      <point x="318" y="710"/>
      <point x="280" y="710" type="curve" smooth="yes"/>
      <point x="242" y="710"/>
      <point x="210" y="678"/>
    </contour>
  </outline>
</glyph>
<glyph name="ae" format="2">
  <advance width="965"/>
  <unicode hex="00E6"/>
  <outline>
    <contour>
      <point x="85" y="440" type="curve"/>
      <point x="135" y="390" type="line"/>
      <point x="145" y="400"/>
      <point x="200" y="465"/>
      <point x="290" y="465" type="curve" smooth="yes"/>
      <point x="410" y="465"/>
      <point x="420" y="385"/>
      <point x="420" y="360" type="curve" smooth="yes"/>
      <point x="420" y="290" type="line"/>
      <point x="378" y="300"/>
      <point x="320" y="320"/>
      <point x="250" y="320" type="curve" smooth="yes"/>
      <point x="200" y="320"/>
      <point x="65" y="300"/>
      <point x="65" y="150" type="curve" smooth="yes"/>
      <point x="65" y="47"/>
      <point x="160" y="-10"/>
      <point x="240" y="-10" type="curve" smooth="yes"/>
      <point x="330" y="-10"/>
      <point x="420" y="45"/>
      <point x="465" y="100" type="curve"/>
      <point x="500" y="50"/>
      <point x="565" y="-10"/>
      <point x="670" y="-10" type="curve" smooth="yes"/>
      <point x="800" y="-10"/>
      <point x="870" y="70"/>
      <point x="890" y="120" type="curve"/>
      <point x="830" y="150" type="line"/>
      <point x="800" y="90"/>
      <point x="750" y="50"/>
      <point x="670" y="50" type="curve" smooth="yes"/>
      <point x="555" y="50"/>
      <point x="500" y="150"/>
      <point x="500" y="240" type="curve"/>
      <point x="915" y="240" type="line"/>
      <point x="915" y="253"/>
      <point x="915" y="265"/>
      <point x="914" y="276" type="curve" smooth="yes"/>
      <point x="902" y="459"/>
      <point x="797" y="530"/>
      <point x="670" y="530" type="curve" smooth="yes"/>
      <point x="565" y="530"/>
      <point x="505" y="475"/>
      <point x="475" y="435" type="curve"/>
      <point x="465" y="465"/>
      <point x="420" y="530"/>
      <point x="290" y="530" type="curve" smooth="yes"/>
      <point x="180" y="530"/>
      <point x="105" y="460"/>
    </contour>
    <contour>
      <point x="500" y="300" type="line"/>
      <point x="500" y="370"/>
      <point x="550" y="470"/>
      <point x="670" y="470" type="curve" smooth="yes"/>
      <point x="790" y="470"/>
      <point x="840" y="370"/>
      <point x="840" y="300" type="curve"/>
    </contour>
    <contour>
      <point x="420" y="235" type="curve"/>
      <point x="420" y="130" type="line"/>
      <point x="377" y="102"/>
      <point x="340" y="60"/>
      <point x="260" y="60" type="curve" smooth="yes"/>
      <point x="190" y="60"/>
      <point x="140" y="95"/>
      <point x="140" y="155" type="curve" smooth="yes"/>
      <point x="140" y="220"/>
      <point x="200" y="255"/>
      <point x="260" y="255" type="curve" smooth="yes"/>
      <point x="320" y="255"/>
      <point x="390" y="243"/>
    </contour>
  </outline>
</glyph>
<glyph name="ccedilla" format="2">
  <advance width="560"/>
  <unicode hex="00E7"/>
  <outline>
    <contour>
      <point x="159" y="-112" type="line"/>
      <point x="179" y="-140"/>
      <point x="229" y="-175"/>
      <point x="289" y="-175" type="curve" smooth="yes"/>
      <point x="349" y="-175"/>
      <point x="418" y="-138"/>
      <point x="418" y="-73" type="curve" smooth="yes"/>
      <point x="418" y="-42"/>
      <point x="396" y="-11"/>
      <point x="365" y="-2" type="curve"/>
      <point x="440" y="15"/>
      <point x="496" y="62"/>
      <point x="520" y="140" type="curve"/>
      <point x="460" y="170" type="line"/>
      <point x="440" y="110"/>
      <point x="385" y="50"/>
      <point x="295" y="50" type="curve" smooth="yes"/>
      <point x="205" y="50"/>
      <point x="125" y="120"/>
      <point x="125" y="260" type="curve" smooth="yes"/>
      <point x="125" y="400"/>
      <point x="205" y="470"/>
      <point x="295" y="470" type="curve" smooth="yes"/>
      <point x="385" y="470"/>
      <point x="440" y="410"/>
      <point x="460" y="350" type="curve"/>
      <point x="520" y="380" type="line"/>
      <point x="490" y="470"/>
      <point x="405" y="530"/>
      <point x="296" y="530" type="curve" smooth="yes"/>
      <point x="175" y="530"/>
      <point x="50" y="450"/>
      <point x="50" y="260" type="curve" smooth="yes"/>
      <point x="50" y="70"/>
      <point x="175" y="-7"/>
      <point x="295" y="-7" type="curve"/>
      <point x="334" y="-12"/>
      <point x="348" y="-44"/>
      <point x="348" y="-62" type="curve" smooth="yes"/>
      <point x="348" y="-92"/>
      <point x="320" y="-115"/>
      <point x="285" y="-115" type="curve" smooth="yes"/>
      <point x="250" y="-115"/>
      <point x="226" y="-94"/>
      <point x="214" y="-79" type="curve"/>
    </contour>
  </outline>
</glyph>
<glyph name="egrave" format="2">
  <advance width="570"/>
  <unicode hex="00E8"/>
  <outline>
    <component base="e"/>
    <contour>
      <point x="195" y="695" type="line"/>
      <point x="300" y="590" type="line"/>
      <point x="370" y="605" type="line"/>
      <point x="295" y="695" type="line"/>
    </contour>
  </outline>
</glyph>
<glyph name="eacute" format="2">
  <advance width="570"/>
  <unicode hex="00E9"/>
  <outline>
    <component base="e"/>
    <contour>
      <point x="240" y="605" type="line"/>
      <point x="310" y="590" type="line"/>
      <point x="415" y="695" type="line"/>
      <point x="315" y="695" type="line"/>
    </contour>
  </outline>
</glyph>
<glyph name="ecircumflex" format="2">
  <advance width="570"/>
  <unicode hex="00EA"/>
  <outline>
    <component base="e"/>
    <contour>
      <point x="185" y="595" type="line"/>
      <point x="235" y="575" type="line"/>
      <point x="285" y="655" type="line"/>
      <point x="335" y="575" type="line"/>
      <point x="385" y="595" type="line"/>
      <point x="305" y="705" type="line"/>
      <point x="265" y="705" type="line"/>
    </contour>
  </outline>
</glyph>
<glyph name="edieresis" format="2">
  <advance width="570"/>
  <unicode hex="00EB"/>
  <outline>
    <component base="e"/>
    <contour>
      <point x="120" y="600" type="line"/>
      <point x="195" y="600" type="line"/>
      <point x="195" y="680" type="line"/>
      <point x="120" y="680" type="line"/>
    </contour>
    <contour>
      <point x="385" y="600" type="line"/>
      <point x="460" y="600" type="line"/>
      <point x="460" y="680" type="line"/>
      <point x="385" y="680" type="line"/>
    </contour>
  </outline>
</glyph>
<glyph name="igrave" format="2">
  <advance width="230"/>
  <unicode hex="00EC"/>
  <outline>
    <component base="dotlessi"/>
    <contour>
      <point x="20" y="695" type="line"/>
      <point x="125" y="590" type="line"/>
      <point x="195" y="605" type="line"/>
      <point x="120" y="695" type="line"/>
    </contour>
  </outline>
</glyph>
<glyph name="iacute" format="2">
  <advance width="230"/>
  <unicode hex="00ED"/>
  <outline>
    <component base="dotlessi"/>
    <contour>
      <point x="35" y="605" type="line"/>
      <point x="105" y="590" type="line"/>
      <point x="210" y="695" type="line"/>
      <point x="110" y="695" type="line"/>
    </contour>
  </outline>
</glyph>
<glyph name="icircumflex" format="2">
  <advance width="230"/>
  <unicode hex="00EE"/>
  <outline>
    <component base="dotlessi"/>
    <contour>
      <point x="15" y="595" type="line"/>
      <point x="65" y="575" type="line"/>
      <point x="115" y="655" type="line"/>
      <point x="165" y="575" type="line"/>
      <point x="215" y="595" type="line"/>
      <point x="135" y="705" type="line"/>
      <point x="95" y="705" type="line"/>
    </contour>
  </outline>
</glyph>
<glyph name="idieresis" format="2">
  <advance width="230"/>
  <unicode hex="00EF"/>
  <outline>
    <component base="dotlessi"/>
    <contour>
      <point x="5" y="600" type="line"/>
      <point x="80" y="600" type="line"/>
      <point x="80" y="680" type="line"/>
      <point x="5" y="680" type="line"/>
    </contour>
    <contour>
      <point x="150" y="600" type="line"/>
      <point x="225" y="600" type="line"/>
      <point x="225" y="680" type="line"/>
      <point x="150" y="680" type="line"/>
    </contour>
  </outline>
</glyph>
<glyph name="eth" format="2">
  <advance width="610"/>
  <unicode hex="00F0"/>
  <outline>
    <contour>
      <point x="155" y="553" type="line"/>
      <point x="386" y="604" type="line"/>
      <point x="397" y="584"/>
      <point x="449" y="532"/>
      <point x="465" y="430" type="curve"/>
      <point x="425" y="500"/>
      <point x="355" y="520"/>
      <point x="305" y="520" type="curve" smooth="yes"/>
      <point x="155" y="520"/>
      <point x="60" y="405"/>
      <point x="60" y="255" type="curve" smooth="yes"/>
      <point x="60" y="125"/>
      <point x="145" y="-10"/>
      <point x="305" y="-10" type="curve" smooth="yes"/>
      <point x="475" y="-10"/>
      <point x="550" y="165"/>
      <point x="550" y="290" type="curve" smooth="yes"/>
      <point x="550" y="460"/>
      <point x="495" y="560"/>
      <point x="455" y="620" type="curve"/>
      <point x="540" y="640" type="line"/>
      <point x="530" y="705" type="line"/>
      <point x="407" y="678" type="line"/>
      <point x="377" y="712"/>
      <point x="325" y="740"/>
      <point x="295" y="755" type="curve"/>
      <point x="245" y="709" type="line"/>
      <point x="268" y="701"/>
      <point x="304" y="682"/>
      <point x="329" y="661" type="curve"/>
      <point x="142" y="620" type="line"/>
    </contour>
    <contour>
      <point x="305" y="50" type="curve" smooth="yes"/>
      <point x="190" y="50"/>
      <point x="135" y="155"/>
      <point x="135" y="255" type="curve" smooth="yes"/>
      <point x="135" y="355"/>
      <point x="190" y="460"/>
      <point x="300" y="460" type="curve" smooth="yes"/>
      <point x="410" y="460"/>
      <point x="475" y="355"/>
      <point x="475" y="255" type="curve" smooth="yes"/>
      <point x="475" y="155"/>
      <point x="410" y="50"/>
    </contour>
  </outline>
</glyph>
<glyph name="ntilde" format="2">
  <advance width="550"/>
  <unicode hex="00F1"/>
  <outline>
    <component base="n"/>
    <contour>
      <point x="75" y="630" type="curve"/>
      <point x="115" y="585" type="line"/>
      <point x="119" y="597"/>
      <point x="135" y="645"/>
      <point x="185" y="645" type="curve" smooth="yes"/>
      <point x="242" y="645"/>
      <point x="275" y="575"/>
      <point x="335" y="575" type="curve" smooth="yes"/>
      <point x="395" y="575"/>
      <point x="423" y="620"/>
      <point x="440" y="650" type="curve"/>
      <point x="395" y="695" type="line"/>
      <point x="385" y="670"/>
      <point x="365" y="635"/>
      <point x="335" y="635" type="curve" smooth="yes"/>
      <point x="295" y="635"/>
      <point x="245" y="705"/>
      <point x="185" y="705" type="curve" smooth="yes"/>
      <point x="125" y="705"/>
      <point x="92" y="663"/>
    </contour>
  </outline>
</glyph>
<glyph name="ograve" format="2">
  <advance width="591"/>
  <unicode hex="00F2"/>
  <outline>
    <component base="o"/>
    <contour>
      <point x="185" y="700" type="line"/>
      <point x="290" y="595" type="line"/>
      <point x="360" y="610" type="line"/>
      <point x="285" y="700" type="line"/>
    </contour>
  </outline>
</glyph>
<glyph name="oacute" format="2">
  <advance width="591"/>
  <unicode hex="00F3"/>
  <outline>
    <component base="o"/>
    <contour>
      <point x="240" y="610" type="line"/>
      <point x="310" y="595" type="line"/>
      <point x="415" y="700" type="line"/>
      <point x="315" y="700" type="line"/>
    </contour>
  </outline>
</glyph>
<glyph name="ocircumflex" format="2">
  <advance width="591"/>
  <unicode hex="00F4"/>
  <outline>
    <component base="o"/>
    <contour>
      <point x="195" y="595" type="line"/>
      <point x="245" y="575" type="line"/>
      <point x="295" y="655" type="line"/>
      <point x="345" y="575" type="line"/>
      <point x="395" y="595" type="line"/>
      <point x="315" y="705" type="line"/>
      <point x="275" y="705" type="line"/>
    </contour>
  </outline>
</glyph>
<glyph name="otilde" format="2">
  <advance width="591"/>
  <unicode hex="00F5"/>
  <outline>
    <component base="o"/>
    <contour>
      <point x="110" y="630" type="curve"/>
      <point x="150" y="585" type="line"/>
      <point x="154" y="597"/>
      <point x="170" y="645"/>
      <point x="220" y="645" type="curve" smooth="yes"/>
      <point x="277" y="645"/>
      <point x="310" y="575"/>
      <point x="370" y="575" type="curve" smooth="yes"/>
      <point x="430" y="575"/>
      <point x="458" y="620"/>
      <point x="475" y="650" type="curve"/>
      <point x="430" y="695" type="line"/>
      <point x="420" y="670"/>
      <point x="400" y="635"/>
      <point x="370" y="635" type="curve" smooth="yes"/>
      <point x="330" y="635"/>
      <point x="280" y="705"/>
      <point x="220" y="705" type="curve" smooth="yes"/>
      <point x="160" y="705"/>
      <point x="127" y="663"/>
    </contour>
  </outline>
</glyph>
<glyph name="odieresis" format="2">
  <advance width="591"/>
  <unicode hex="00F6"/>
  <outline>
    <component base="o"/>
    <contour>
      <point x="110" y="600" type="line"/>
      <point x="185" y="600" type="line"/>
      <point x="185" y="680" type="line"/>
      <point x="110" y="680" type="line"/>
    </contour>
    <contour>
      <point x="405" y="600" type="line"/>
      <point x="480" y="600" type="line"/>
      <point x="480" y="680" type="line"/>
      <point x="405" y="680" type="line"/>
    </contour>
  </outline>
</glyph>
<glyph name="divide" format="2">
  <advance width="400"/>
  <unicode hex="00F7"/>
  <outline>
    <contour>
      <point x="60" y="265" type="line"/>
      <point x="340" y="265" type="line"/>
      <point x="340" y="325" type="line"/>
      <point x="60" y="325" type="line"/>
    </contour>
    <contour>
      <point x="165" y="385" type="line"/>
      <point x="235" y="385" type="line"/>
      <point x="235" y="455" type="line"/>
      <point x="165" y="455" type="line"/>
    </contour>
    <contour>
      <point x="165" y="135" type="line"/>
      <point x="235" y="135" type="line"/>
      <point x="235" y="205" type="line"/>
      <point x="165" y="205" type="line"/>
    </contour>
  </outline>
</glyph>
<glyph name="oslash" format="2">
  <advance width="591"/>
  <unicode hex="00F8"/>
  <outline>
    <contour>
      <point x="85" y="-10" type="line"/>
      <point x="135" y="44" type="line"/>
      <point x="180" y="8"/>
      <point x="236" y="-10"/>
      <point x="295" y="-10" type="curve" smooth="yes"/>
      <point x="425" y="-10"/>
      <point x="545" y="80"/>
      <point x="545" y="260" type="curve" smooth="yes"/>
      <point x="545" y="332"/>
      <point x="525" y="390"/>
      <point x="494" y="433" type="curve"/>
      <point x="545" y="489" type="line"/>
      <point x="505" y="530" type="line"/>
      <point x="455" y="475" type="line"/>
      <point x="410" y="512"/>
      <point x="353" y="530"/>
      <point x="295" y="530" type="curve" smooth="yes"/>
      <point x="165" y="530"/>
      <point x="45" y="440"/>
      <point x="45" y="260" type="curve" smooth="yes"/>
      <point x="45" y="187"/>
      <point x="64" y="129"/>
      <point x="96" y="86" type="curve"/>
      <point x="45" y="30" type="line"/>
    </contour>
    <contour>
      <point x="410" y="426" type="curve"/>
      <point x="146" y="140" type="line"/>
      <point x="128" y="174"/>
      <point x="120" y="216"/>
      <point x="120" y="260" type="curve" smooth="yes"/>
      <point x="120" y="370"/>
      <point x="175" y="470"/>
      <point x="295" y="470" type="curve" smooth="yes"/>
      <point x="344" y="470"/>
      <point x="382" y="453"/>
    </contour>
    <contour>
      <point x="180" y="93" type="curve"/>
      <point x="444" y="379" type="line"/>
      <point x="461" y="345"/>
      <point x="470" y="303"/>
      <point x="470" y="260" type="curve" smooth="yes"/>
      <point x="470" y="150"/>
      <point x="415" y="50"/>
      <point x="295" y="50" type="curve" smooth="yes"/>
      <point x="246" y="50"/>
      <point x="208" y="66"/>
    </contour>
  </outline>
</glyph>
<glyph name="ugrave" format="2">
  <advance width="560"/>
  <unicode hex="00F9"/>
  <outline>
    <component base="u"/>
    <contour>
      <point x="140" y="700" type="line"/>
      <point x="245" y="595" type="line"/>
      <point x="315" y="610" type="line"/>
      <point x="240" y="700" type="line"/>
    </contour>
  </outline>
</glyph>
<glyph name="uacute" format="2">
  <advance width="560"/>
  <unicode hex="00FA"/>
  <outline>
    <component base="u"/>
    <contour>
      <point x="215" y="610" type="line"/>
      <point x="285" y="595" type="line"/>
      <point x="390" y="700" type="line"/>
      <point x="290" y="700" type="line"/>
    </contour>
  </outline>
</glyph>
<glyph name="ucircumflex" format="2">
  <advance width="560"/>
  <unicode hex="00FB"/>
  <outline>
    <component base="u"/>
    <contour>
      <point x="180" y="595" type="line"/>
      <point x="230" y="575" type="line"/>
      <point x="280" y="655" type="line"/>
      <point x="330" y="575" type="line"/>
      <point x="380" y="595" type="line"/>
      <point x="300" y="705" type="line"/>
      <point x="260" y="705" type="line"/>
    </contour>
  </outline>
</glyph>
<glyph name="udieresis" format="2">
  <advance width="560"/>
  <unicode hex="00FC"/>
  <outline>
    <component base="u"/>
    <contour>
      <point x="105" y="600" type="line"/>
      <point x="180" y="600" type="line"/>
      <point x="180" y="680" type="line"/>
      <point x="105" y="680" type="line"/>
    </contour>
    <contour>
      <point x="375" y="600" type="line"/>
      <point x="450" y="600" type="line"/>
      <point x="450" y="680" type="line"/>
      <point x="375" y="680" type="line"/>
    </contour>
  </outline>
</glyph>
<glyph name="yacute" format="2">
  <advance width="520"/>
  <unicode hex="00FD"/>
  <outline>
    <component base="y"/>
    <contour>
      <point x="210" y="610" type="line"/>
      <point x="280" y="595" type="line"/>
      <point x="385" y="700" type="line"/>
      <point x="285" y="700" type="line"/>
    </contour>
  </outline>
</glyph>
<glyph name="ydieresis" format="2">
  <advance width="520"/>
  <unicode hex="00FF"/>
  <outline>
    <component base="y"/>
    <contour>
      <point x="95" y="600" type="line"/>
      <point x="170" y="600" type="line"/>
      <point x="170" y="680" type="line"/>
      <point x="95" y="680" type="line"/>
    </contour>
    <contour>
      <point x="345" y="600" type="line"/>
      <point x="420" y="600" type="line"/>
      <point x="420" y="680" type="line"/>
      <point x="345" y="680" type="line"/>
    </contour>
  </outline>
</glyph>
<glyph name="dotlessi" format="2">
  <advance width="230"/>
  <unicode hex="0131"/>
  <outline>
    <contour>
      <point x="80" y="0" type="line"/>
      <point x="150" y="0" type="line"/>
      <point x="150" y="520" type="line"/>
      <point x="80" y="520" type="line"/>
    </contour>
  </outline>
</glyph>
<glyph name="Lslash" format="2">
  <advance width="555"/>
  <unicode hex="0141"/>
  <outline>
    <contour>
      <point x="80" y="0" type="line"/>
      <point x="500" y="0" type="line"/>
      <point x="500" y="67" type="line"/>
      <point x="157" y="67" type="line"/>
      <point x="157" y="408" type="line"/>
      <point x="209" y="442" type="line"/>
      <point x="195" y="509" type="line"/>
      <point x="157" y="483" type="line"/>
      <point x="157" y="720" type="line"/>
      <point x="80" y="720" type="line"/>
      <point x="80" y="434" type="line"/>
      <point x="17" y="394" type="line"/>
      <point x="32" y="326" type="line"/>
      <point x="80" y="358" type="line"/>
    </contour>
  </outline>
</glyph>
<glyph name="lslash" format="2">
  <advance width="240"/>
  <unicode hex="0142"/>
  <outline>
    <contour>
      <point x="85" y="0" type="line"/>
      <point x="155" y="0" type="line"/>
      <point x="155" y="418" type="line"/>
      <point x="220" y="460" type="line"/>
      <point x="205" y="530" type="line"/>
      <point x="155" y="498" type="line"/>
      <point x="155" y="750" type="line"/>
      <point x="85" y="750" type="line"/>
      <point x="85" y="452" type="line"/>
      <point x="20" y="410" type="line"/>
      <point x="35" y="340" type="line"/>
      <point x="85" y="373" type="line"/>
    </contour>
  </outline>
</glyph>
<glyph name="OE" format="2">
  <advance width="1125"/>
  <unicode hex="0152"/>
  <outline>
    <contour>
      <point x="405" y="58" type="curve" smooth="yes"/>
      <point x="261" y="58"/>
      <point x="147" y="173"/>
      <point x="147" y="360" type="curve" smooth="yes"/>
      <point x="147" y="547"/>
      <point x="261" y="662"/>
      <point x="405" y="662" type="curve" smooth="yes"/>
      <point x="559" y="662"/>
      <point x="615" y="576"/>
      <point x="615" y="509" type="curve" smooth="yes"/>
      <point x="615" y="211" type="line" smooth="yes"/>
      <point x="615" y="125"/>
      <point x="559" y="58"/>
    </contour>
    <contour>
      <point x="615" y="0" type="line"/>
      <point x="1060" y="0" type="line"/>
      <point x="1060" y="67" type="line"/>
      <point x="693" y="67" type="line"/>
      <point x="693" y="346" type="line"/>
      <point x="1020" y="346" type="line"/>
      <point x="1020" y="413" type="line"/>
      <point x="693" y="413" type="line"/>
      <point x="693" y="653" type="line"/>
      <point x="1050" y="653" type="line"/>
      <point x="1050" y="720" type="line"/>
      <point x="615" y="720" type="line"/>
      <point x="615" y="658" type="line"/>
      <point x="576" y="696"/>
      <point x="497" y="730"/>
      <point x="405" y="730" type="curve" smooth="yes"/>
      <point x="223" y="730"/>
      <point x="65" y="605"/>
      <point x="65" y="360" type="curve" smooth="yes"/>
      <point x="65" y="115"/>
      <point x="223" y="-10"/>
      <point x="405" y="-10" type="curve" smooth="yes"/>
      <point x="497" y="-10"/>
      <point x="586" y="29"/>
      <point x="615" y="62" type="curve"/>
    </contour>
  </outline>
</glyph>
<glyph name="oe" format="2">
  <advance width="1035"/>
  <unicode hex="0153"/>
  <outline>
    <contour>
      <point x="315" y="50" type="curve" smooth="yes"/>
      <point x="195" y="50"/>
      <point x="135" y="150"/>
      <point x="135" y="260" type="curve" smooth="yes"/>
      <point x="135" y="370"/>
      <point x="185" y="470"/>
      <point x="315" y="470" type="curve" smooth="yes"/>
      <point x="445" y="470"/>
      <point x="495" y="370"/>
      <point x="495" y="260" type="curve" smooth="yes"/>
      <point x="495" y="150"/>
      <point x="445" y="50"/>
    </contour>
    <contour>
      <point x="900" y="150" type="line"/>
      <point x="870" y="90"/>
      <point x="820" y="50"/>
      <point x="740" y="50" type="curve" smooth="yes"/>
      <point x="625" y="50"/>
      <point x="570" y="150"/>
      <point x="570" y="240" type="curve"/>
      <point x="985" y="240" type="line"/>
      <point x="985" y="251"/>
      <point x="985" y="262"/>
      <point x="984" y="273" type="curve"/>
      <point x="973" y="458"/>
      <point x="868" y="530"/>
      <point x="740" y="530" type="curve" smooth="yes"/>
      <point x="620" y="530"/>
      <point x="556" y="472"/>
      <point x="527" y="419" type="curve"/>
      <point x="474" y="512"/>
      <point x="365" y="530"/>
      <point x="315" y="530" type="curve" smooth="yes"/>
      <point x="215" y="530"/>
      <point x="60" y="470"/>
      <point x="60" y="260" type="curve" smooth="yes"/>
      <point x="60" y="50"/>
      <point x="215" y="-10"/>
      <point x="315" y="-10" type="curve" smooth="yes"/>
      <point x="415" y="-10"/>
      <point x="495" y="42"/>
      <point x="531" y="106" type="curve"/>
      <point x="564" y="52"/>
      <point x="635" y="-10"/>
      <point x="740" y="-10" type="curve" smooth="yes"/>
      <point x="870" y="-10"/>
      <point x="940" y="70"/>
      <point x="960" y="120" type="curve"/>
    </contour>
    <contour>
      <point x="570" y="300" type="line"/>
      <point x="570" y="370"/>
      <point x="620" y="470"/>
      <point x="740" y="470" type="curve" smooth="yes"/>
      <point x="860" y="470"/>
      <point x="910" y="370"/>
      <point x="910" y="300" type="curve"/>
    </contour>
  </outline>
</glyph>
<glyph name="Scaron" format="2">
  <advance width="649"/>
  <unicode hex="0160"/>
  <outline>
    <component base="S"/>
    <contour>
      <point x="210" y="865" type="line"/>
      <point x="310" y="760" type="line"/>
      <point x="330" y="760" type="line"/>
      <point x="430" y="865" type="line"/>
      <point x="390" y="890" type="line"/>
      <point x="320" y="810" type="line"/>
      <point x="250" y="890" type="line"/>
    </contour>
  </outline>
</glyph>
<glyph name="scaron" format="2">
  <advance width="500"/>
  <unicode hex="0161"/>
  <outline>
    <component base="s"/>
    <contour>
      <point x="148" y="655" type="line"/>
      <point x="248" y="550" type="line"/>
      <point x="268" y="550" type="line"/>
      <point x="368" y="655" type="line"/>
      <point x="328" y="680" type="line"/>
      <point x="258" y="600" type="line"/>
      <point x="188" y="680" type="line"/>
    </contour>
  </outline>
</glyph>
<glyph name="Ydieresis" format="2">
  <advance width="666"/>
  <unicode hex="0178"/>
  <outline>
    <component base="Y"/>
    <contour>
      <point x="100" y="785" type="line"/>
      <point x="175" y="785" type="line"/>
      <point x="175" y="865" type="line"/>
      <point x="100" y="865" type="line"/>
    </contour>
    <contour>
      <point x="495" y="785" type="line"/>
      <point x="570" y="785" type="line"/>
      <point x="570" y="865" type="line"/>
      <point x="495" y="865" type="line"/>
    </contour>
  </outline>
</glyph>
<glyph name="Zcaron" format="2">
  <advance width="665"/>
  <unicode hex="017D"/>
  <outline>
    <component base="Z"/>
    <contour>
      <point x="230" y="855" type="line"/>
      <point x="330" y="750" type="line"/>
      <point x="350" y="750" type="line"/>
      <point x="450" y="855" type="line"/>
      <point x="410" y="880" type="line"/>
      <point x="340" y="800" type="line"/>
      <point x="270" y="880" type="line"/>
    </contour>
  </outline>
</glyph>
<glyph name="zcaron" format="2">
  <advance width="490"/>
  <unicode hex="017E"/>
  <outline>
    <component base="z"/>
    <contour>
      <point x="125" y="655" type="line"/>
      <point x="225" y="550" type="line"/>
      <point x="245" y="550" type="line"/>
      <point x="345" y="655" type="line"/>
      <point x="305" y="680" type="line"/>
      <point x="235" y="600" type="line"/>
      <point x="165" y="680" type="line"/>
    </contour>
  </outline>
</glyph>
<glyph name="florin" format="2">
  <advance width="600"/>
  <unicode hex="0192"/>
  <outline>
    <contour>
      <point x="-10" y="-109" type="line"/>
      <point x="5" y="-133"/>
      <point x="51" y="-170"/>
      <point x="105" y="-170" type="curve" smooth="yes"/>
      <point x="170" y="-170"/>
      <point x="238" y="-136"/>
      <point x="254" y="-37" type="curve" smooth="yes"/>
      <point x="329" y="420" type="line"/>
      <point x="465" y="420" type="line"/>
      <point x="465" y="490" type="line"/>
      <point x="341" y="490" type="line"/>
      <point x="362" y="614" type="line" smooth="yes"/>
      <point x="369" y="658"/>
      <point x="395" y="690"/>
      <point x="450" y="690" type="curve" smooth="yes"/>
      <point x="497" y="690"/>
      <point x="531" y="650"/>
      <point x="540" y="640" type="curve"/>
      <point x="588" y="692" type="line"/>
      <point x="572" y="712"/>
      <point x="523" y="760"/>
      <point x="455" y="760" type="curve" smooth="yes"/>
      <point x="370" y="760"/>
      <point x="301" y="721"/>
      <point x="285" y="620" type="curve" smooth="yes"/>
      <point x="265" y="490" type="line"/>
      <point x="190" y="490" type="line"/>
      <point x="190" y="420" type="line"/>
      <point x="254" y="420" type="line"/>
      <point x="179" y="-34" type="line"/>
      <point x="169" y="-65"/>
      <point x="153" y="-100"/>
      <point x="108" y="-100" type="curve" smooth="yes"/>
      <point x="72" y="-100"/>
      <point x="43" y="-70"/>
      <point x="35" y="-60" type="curve"/>
    </contour>
  </outline>
</glyph>
<glyph name="delta" format="2">
  <advance width="700"/>
  <unicode hex="03B4"/>
  <outline>
    <contour>
      <point x="30" y="0" type="line"/>
      <point x="670" y="0" type="line"/>
      <point x="390" y="750" type="line"/>
      <point x="310" y="750" type="line"/>
    </contour>
    <contour>
      <point x="140" y="75" type="line"/>
      <point x="350" y="660" type="line"/>
      <point x="560" y="75" type="line"/>
    </contour>
  </outline>
</glyph>
<glyph name="pi" format="2">
  <advance width="520"/>
  <unicode hex="03C0"/>
  <outline>
    <contour>
      <point x="80" y="0" type="line"/>
      <point x="160" y="0" type="line"/>
      <point x="160" y="450" type="line"/>
      <point x="360" y="450" type="line"/>
      <point x="360" y="0" type="line"/>
      <point x="440" y="0" type="line"/>
      <point x="440" y="455" type="line"/>
      <point x="460" y="460"/>
      <point x="475" y="465"/>
      <point x="490" y="485" type="curve"/>
      <point x="475" y="550" type="line"/>
      <point x="465" y="540"/>
      <point x="440" y="520"/>
      <point x="415" y="520" type="curve" smooth="yes"/>
      <point x="110" y="520" type="line" smooth="yes"/>
      <point x="70" y="520"/>
      <point x="40" y="505"/>
      <point x="20" y="490" type="curve"/>
      <point x="30" y="415" type="line"/>
      <point x="55" y="435"/>
      <point x="80" y="440"/>
      <point x="80" y="440" type="curve"/>
    </contour>
  </outline>
</glyph>
<glyph name="endash" format="2">
  <advance width="550"/>
  <unicode hex="2013"/>
  <outline>
    <contour>
      <point x="70" y="265" type="line"/>
      <point x="480" y="265" type="line"/>
      <point x="480" y="325" type="line"/>
      <point x="70" y="325" type="line"/>
    </contour>
  </outline>
</glyph>
<glyph name="emdash" format="2">
  <advance width="830"/>
  <unicode hex="2014"/>
  <outline>
    <contour>
      <point x="70" y="265" type="line"/>
      <point x="760" y="265" type="line"/>
      <point x="760" y="325" type="line"/>
      <point x="70" y="325" type="line"/>
    </contour>
  </outline>
</glyph>
<glyph name="quoteleft" format="2">
  <advance width="180"/>
  <unicode hex="2018"/>
  <outline>
    <contour>
      <point x="40" y="550" type="line"/>
      <point x="140" y="550" type="line"/>
      <point x="140" y="650" type="line"/>
      <point x="110" y="670" type="line"/>
      <point x="150" y="770" type="line"/>
      <point x="140" y="770" type="line"/>
      <point x="60" y="680" type="line"/>
    </contour>
  </outline>
</glyph>
<glyph name="quoteright" format="2">
  <advance width="180"/>
  <unicode hex="2019"/>
  <outline>
    <contour>
      <point x="30" y="530" type="line"/>
      <point x="40" y="530" type="line"/>
      <point x="120" y="620" type="line"/>
      <point x="140" y="750" type="line"/>
      <point x="40" y="750" type="line"/>
      <point x="40" y="650" type="line"/>
      <point x="70" y="630" type="line"/>
    </contour>
  </outline>
</glyph>
<glyph name="quotesinglbase" format="2">
  <advance width="180"/>
  <unicode hex="201A"/>
  <outline>
    <contour>
      <point x="30" y="-120" type="line"/>
      <point x="40" y="-120" type="line"/>
      <point x="120" y="-30" type="line"/>
      <point x="140" y="100" type="line"/>
      <point x="40" y="100" type="line"/>
      <point x="40" y="0" type="line"/>
      <point x="70" y="-20" type="line"/>
    </contour>
  </outline>
</glyph>
<glyph name="quotedblleft" format="2">
  <advance width="315"/>
  <unicode hex="201C"/>
  <outline>
    <contour>
      <point x="40" y="550" type="line"/>
      <point x="140" y="550" type="line"/>
      <point x="140" y="650" type="line"/>
      <point x="110" y="670" type="line"/>
      <point x="150" y="770" type="line"/>
      <point x="140" y="770" type="line"/>
      <point x="60" y="680" type="line"/>
    </contour>
    <contour>
      <point x="175" y="550" type="line"/>
      <point x="275" y="550" type="line"/>
      <point x="275" y="650" type="line"/>
      <point x="245" y="670" type="line"/>
      <point x="285" y="770" type="line"/>
      <point x="275" y="770" type="line"/>
      <point x="195" y="680" type="line"/>
    </contour>
  </outline>
</glyph>
<glyph name="quotedblright" format="2">
  <advance width="315"/>
  <unicode hex="201D"/>
  <outline>
    <contour>
      <point x="165" y="530" type="line"/>
      <point x="175" y="530" type="line"/>
      <point x="255" y="620" type="line"/>
      <point x="275" y="750" type="line"/>
      <point x="175" y="750" type="line"/>
      <point x="175" y="650" type="line"/>
      <point x="205" y="630" type="line"/>
    </contour>
    <contour>
      <point x="30" y="530" type="line"/>
      <point x="40" y="530" type="line"/>
      <point x="120" y="620" type="line"/>
      <point x="140" y="750" type="line"/>
      <point x="40" y="750" type="line"/>
      <point x="40" y="650" type="line"/>
      <point x="70" y="630" type="line"/>
    </contour>
  </outline>
</glyph>
<glyph name="quotedblbase" format="2">
  <advance width="315"/>
  <unicode hex="201E"/>
  <outline>
    <contour>
      <point x="30" y="-120" type="line"/>
      <point x="40" y="-120" type="line"/>
      <point x="120" y="-30" type="line"/>
      <point x="140" y="100" type="line"/>
      <point x="40" y="100" type="line"/>
      <point x="40" y="0" type="line"/>
      <point x="70" y="-20" type="line"/>
    </contour>
    <contour>
      <point x="165" y="-120" type="line"/>
      <point x="175" y="-120" type="line"/>
      <point x="255" y="-30" type="line"/>
      <point x="275" y="100" type="line"/>
      <point x="175" y="100" type="line"/>
      <point x="175" y="0" type="line"/>
      <point x="205" y="-20" type="line"/>
    </contour>
  </outline>
</glyph>
<glyph name="dagger" format="2">
  <advance width="470"/>
  <unicode hex="2020"/>
  <outline>
    <contour>
      <point x="240" y="-80" type="line"/>
      <point x="280" y="170" type="line"/>
      <point x="260" y="500" type="line"/>
      <point x="340" y="490" type="line"/>
      <point x="430" y="520" type="line"/>
      <point x="340" y="550" type="line"/>
      <point x="260" y="540" type="line"/>
      <point x="280" y="630" type="line"/>
      <point x="240" y="760" type="line"/>
      <point x="200" y="630" type="line"/>
      <point x="220" y="540" type="line"/>
      <point x="130" y="550" type="line"/>
      <point x="40" y="520" type="line"/>
      <point x="130" y="490" type="line"/>
      <point x="220" y="500" type="line"/>
      <point x="200" y="170" type="line"/>
    </contour>
  </outline>
</glyph>
<glyph name="daggerdbl" format="2">
  <advance width="470"/>
  <unicode hex="2021"/>
  <outline>
    <contour>
      <point x="240" y="-80" type="line"/>
      <point x="280" y="50" type="line"/>
      <point x="260" y="140" type="line"/>
      <point x="350" y="130" type="line"/>
      <point x="440" y="160" type="line"/>
      <point x="350" y="190" type="line"/>
      <point x="260" y="180" type="line"/>
      <point x="270" y="340" type="line"/>
      <point x="260" y="500" type="line"/>
      <point x="340" y="490" type="line"/>
      <point x="430" y="520" type="line"/>
      <point x="340" y="550" type="line"/>
      <point x="260" y="540" type="line"/>
      <point x="280" y="630" type="line"/>
      <point x="240" y="760" type="line"/>
      <point x="200" y="630" type="line"/>
      <point x="220" y="540" type="line"/>
      <point x="130" y="550" type="line"/>
      <point x="40" y="520" type="line"/>
      <point x="130" y="490" type="line"/>
      <point x="220" y="500" type="line"/>
      <point x="210" y="340" type="line"/>
      <point x="220" y="180" type="line"/>
      <point x="140" y="190" type="line"/>
      <point x="50" y="160" type="line"/>
      <point x="140" y="130" type="line"/>
      <point x="220" y="140" type="line"/>
      <point x="200" y="50" type="line"/>
    </contour>
  </outline>
</glyph>
<glyph name="bullet" format="2">
  <advance width="280"/>
  <unicode hex="2022"/>
  <outline>
    <contour>
      <point x="140" y="210" type="curve" smooth="yes"/>
      <point x="189" y="210"/>
      <point x="230" y="253"/>
      <point x="230" y="305" type="curve" smooth="yes"/>
      <point x="230" y="357"/>
      <point x="189" y="400"/>
      <point x="140" y="400" type="curve" smooth="yes"/>
      <point x="91" y="400"/>
      <point x="50" y="357"/>
      <point x="50" y="305" type="curve" smooth="yes"/>
      <point x="50" y="253"/>
      <point x="91" y="210"/>
    </contour>
  </outline>
</glyph>
<glyph name="ellipsis" format="2">
  <advance width="540"/>
  <unicode hex="2026"/>
  <outline>
    <contour>
      <point x="70" y="0" type="line"/>
      <point x="160" y="0" type="line"/>
      <point x="160" y="100" type="line"/>
      <point x="70" y="100" type="line"/>
    </contour>
    <contour>
      <point x="230" y="0" type="line"/>
      <point x="320" y="0" type="line"/>
      <point x="320" y="100" type="line"/>
      <point x="230" y="100" type="line"/>
    </contour>
    <contour>
      <point x="390" y="0" type="line"/>
      <point x="480" y="0" type="line"/>
      <point x="480" y="100" type="line"/>
      <point x="390" y="100" type="line"/>
    </contour>
  </outline>
</glyph>
<glyph name="perthousand" format="2">
  <advance width="1130"/>
  <unicode hex="2030"/>
  <outline>
    <contour>
      <point x="110" y="0" type="line"/>
      <point x="180" y="0" type="line"/>
      <point x="670" y="750" type="line"/>
      <point x="600" y="750" type="line"/>
    </contour>
    <contour>
      <point x="205" y="355" type="curve" smooth="yes"/>
      <point x="305" y="355"/>
      <point x="370" y="448"/>
      <point x="370" y="555" type="curve" smooth="yes"/>
      <point x="370" y="662"/>
      <point x="305" y="755"/>
      <point x="205" y="755" type="curve" smooth="yes"/>
      <point x="105" y="755"/>
      <point x="40" y="662"/>
      <point x="40" y="555" type="curve" smooth="yes"/>
      <point x="40" y="448"/>
      <point x="105" y="355"/>
    </contour>
    <contour>
      <point x="205" y="412" type="curve" smooth="yes"/>
      <point x="145" y="412"/>
      <point x="105" y="477"/>
      <point x="105" y="555" type="curve" smooth="yes"/>
      <point x="105" y="633"/>
      <point x="145" y="698"/>
      <point x="205" y="698" type="curve" smooth="yes"/>
      <point x="265" y="698"/>
      <point x="305" y="633"/>
      <point x="305" y="555" type="curve" smooth="yes"/>
      <point x="305" y="477"/>
      <point x="265" y="412"/>
    </contour>
    <contour>
      <point x="575" y="-5" type="curve" smooth="yes"/>
      <point x="675" y="-5"/>
      <point x="740" y="88"/>
      <point x="740" y="195" type="curve" smooth="yes"/>
      <point x="740" y="302"/>
      <point x="675" y="395"/>
      <point x="575" y="395" type="curve" smooth="yes"/>
      <point x="475" y="395"/>
      <point x="410" y="302"/>
      <point x="410" y="195" type="curve" smooth="yes"/>
      <point x="410" y="88"/>
      <point x="475" y="-5"/>
    </contour>
    <contour>
      <point x="575" y="57" type="curve" smooth="yes"/>
      <point x="515" y="57"/>
      <point x="475" y="117"/>
      <point x="475" y="195" type="curve" smooth="yes"/>
      <point x="475" y="273"/>
      <point x="515" y="333"/>
      <point x="575" y="333" type="curve" smooth="yes"/>
      <point x="635" y="333"/>
      <point x="675" y="273"/>
      <point x="675" y="195" type="curve" smooth="yes"/>
      <point x="675" y="117"/>
      <point x="635" y="57"/>
    </contour>
    <contour>
      <point x="925" y="-5" type="curve" smooth="yes"/>
      <point x="1025" y="-5"/>
      <point x="1090" y="88"/>
      <point x="1090" y="195" type="curve" smooth="yes"/>
      <point x="1090" y="302"/>
      <point x="1025" y="395"/>
      <point x="925" y="395" type="curve" smooth="yes"/>
      <point x="825" y="395"/>
      <point x="760" y="302"/>
      <point x="760" y="195" type="curve" smooth="yes"/>
      <point x="760" y="88"/>
      <point x="825" y="-5"/>
    </contour>
    <contour>
      <point x="925" y="57" type="curve" smooth="yes"/>
      <point x="865" y="57"/>
      <point x="825" y="117"/>
      <point x="825" y="195" type="curve" smooth="yes"/>
      <point x="825" y="273"/>
      <point x="865" y="333"/>
      <point x="925" y="333" type="curve" smooth="yes"/>
      <point x="985" y="333"/>
      <point x="1025" y="273"/>
      <point x="1025" y="195" type="curve" smooth="yes"/>
      <point x="1025" y="117"/>
      <point x="985" y="57"/>
    </contour>
  </outline>
</glyph>
<glyph name="guilsinglleft" format="2">
  <advance width="340"/>
  <unicode hex="2039"/>
  <outline>
    <contour>
      <point x="50" y="275" type="line"/>
      <point x="280" y="80" type="line"/>
      <point x="300" y="100" type="line"/>
      <point x="125" y="295" type="line"/>
      <point x="300" y="490" type="line"/>
      <point x="280" y="510" type="line"/>
      <point x="50" y="315" type="line"/>
    </contour>
  </outline>
</glyph>
<glyph name="guilsinglright" format="2">
  <advance width="340"/>
  <unicode hex="203A"/>
  <outline>
    <contour>
      <point x="40" y="100" type="line"/>
      <point x="60" y="80" type="line"/>
      <point x="290" y="275" type="line"/>
      <point x="290" y="315" type="line"/>
      <point x="60" y="510" type="line"/>
      <point x="40" y="490" type="line"/>
      <point x="215" y="295" type="line"/>
    </contour>
  </outline>
</glyph>
<glyph name="fraction" format="2">
  <advance width="580"/>
  <unicode hex="2044"/>
  <outline>
    <contour>
      <point x="60" y="100" type="line"/>
      <point x="110" y="100" type="line"/>
      <point x="530" y="670" type="line"/>
      <point x="480" y="670" type="line"/>
    </contour>
  </outline>
</glyph>
<glyph name="Euro" format="2">
  <advance width="610"/>
  <unicode hex="20AC"/>
  <outline>
    <contour>
      <point x="15" y="288" type="line"/>
      <point x="57" y="288" type="line"/>
      <point x="80" y="77"/>
      <point x="206" y="-10"/>
      <point x="337" y="-10" type="curve" smooth="yes"/>
      <point x="481" y="-10"/>
      <point x="558" y="106"/>
      <point x="577" y="168" type="curve"/>
      <point x="512" y="211" type="line"/>
      <point x="489" y="144"/>
      <point x="423" y="62"/>
      <point x="337" y="62" type="curve" smooth="yes"/>
      <point x="255" y="62"/>
      <point x="159" y="111"/>
      <point x="139" y="288" type="curve"/>
      <point x="344" y="288" type="line"/>
      <point x="358" y="341" type="line"/>
      <point x="135" y="341" type="line"/>
      <point x="135" y="379" type="line"/>
      <point x="358" y="379" type="line"/>
      <point x="358" y="432" type="line"/>
      <point x="139" y="432" type="line"/>
      <point x="159" y="608"/>
      <point x="255" y="658"/>
      <point x="337" y="658" type="curve" smooth="yes"/>
      <point x="428" y="658"/>
      <point x="489" y="576"/>
      <point x="512" y="509" type="curve"/>
      <point x="582" y="552" type="line"/>
      <point x="558" y="614"/>
      <point x="481" y="730"/>
      <point x="337" y="730" type="curve" smooth="yes"/>
      <point x="206" y="730"/>
      <point x="80" y="643"/>
      <point x="57" y="432" type="curve"/>
      <point x="30" y="432" type="line"/>
      <point x="15" y="379" type="line"/>
      <point x="54" y="379" type="line"/>
      <point x="54" y="341" type="line"/>
      <point x="15" y="341" type="line"/>
    </contour>
  </outline>
</glyph>
<glyph name="radical" format="2">
  <advance width="650"/>
  <unicode hex="221A"/>
  <outline>
    <contour>
      <point x="80" y="0" type="line"/>
      <point x="130" y="0" type="line"/>
      <point x="260" y="700" type="line"/>
      <point x="620" y="700" type="line"/>
      <point x="620" y="750" type="line"/>
      <point x="210" y="750" type="line"/>
      <point x="90" y="90" type="line"/>
      <point x="40" y="200" type="line"/>
      <point x="0" y="150" type="line"/>
    </contour>
  </outline>
</glyph>
<glyph name="infinity" format="2">
  <advance width="720"/>
  <unicode hex="221E"/>
  <outline>
    <contour>
      <point x="485" y="290" type="curve" smooth="yes"/>
      <point x="430" y="290"/>
      <point x="390" y="335"/>
      <point x="390" y="395" type="curve" smooth="yes"/>
      <point x="390" y="455"/>
      <point x="430" y="500"/>
      <point x="485" y="500" type="curve" smooth="yes"/>
      <point x="540" y="500"/>
      <point x="585" y="465"/>
      <point x="585" y="395" type="curve" smooth="yes"/>
      <point x="585" y="325"/>
      <point x="545" y="290"/>
    </contour>
    <contour>
      <point x="360" y="300" type="curve"/>
      <point x="385" y="260"/>
      <point x="420" y="220"/>
      <point x="485" y="220" type="curve" smooth="yes"/>
      <point x="590" y="220"/>
      <point x="660" y="290"/>
      <point x="660" y="395" type="curve" smooth="yes"/>
      <point x="660" y="500"/>
      <point x="590" y="570"/>
      <point x="485" y="570" type="curve" smooth="yes"/>
      <point x="420" y="570"/>
      <point x="385" y="535"/>
      <point x="360" y="500" type="curve"/>
      <point x="335" y="532"/>
      <point x="290" y="570"/>
      <point x="235" y="570" type="curve" smooth="yes"/>
      <point x="130" y="570"/>
      <point x="60" y="500"/>
      <point x="60" y="395" type="curve" smooth="yes"/>
      <point x="60" y="290"/>
      <point x="130" y="220"/>
      <point x="235" y="220" type="curve" smooth="yes"/>
      <point x="290" y="220"/>
      <point x="330" y="255"/>
    </contour>
    <contour>
      <point x="235" y="290" type="curve" smooth="yes"/>
      <point x="180" y="290"/>
      <point x="135" y="325"/>
      <point x="135" y="395" type="curve" smooth="yes"/>
      <point x="135" y="465"/>
      <point x="180" y="500"/>
      <point x="235" y="500" type="curve" smooth="yes"/>
      <point x="290" y="500"/>
      <point x="330" y="455"/>
      <point x="330" y="395" type="curve" smooth="yes"/>
      <point x="330" y="335"/>
      <point x="290" y="290"/>
    </contour>
  </outline>
</glyph>
<glyph name="approxequal" format="2">
  <advance width="460"/>
  <unicode hex="2248"/>
  <outline>
    <contour>
      <point x="70" y="210" type="line"/>
      <point x="390" y="210" type="line"/>
      <point x="390" y="270" type="line"/>
      <point x="70" y="270" type="line"/>
    </contour>
    <contour>
      <point x="55" y="350" type="curve"/>
      <point x="95" y="305" type="line"/>
      <point x="99" y="317"/>
      <point x="115" y="365"/>
      <point x="165" y="365" type="curve" smooth="yes"/>
      <point x="222" y="365"/>
      <point x="255" y="295"/>
      <point x="315" y="295" type="curve" smooth="yes"/>
      <point x="375" y="295"/>
      <point x="403" y="340"/>
      <point x="420" y="370" type="curve"/>
      <point x="375" y="415" type="line"/>
      <point x="365" y="390"/>
      <point x="345" y="355"/>
      <point x="315" y="355" type="curve" smooth="yes"/>
      <point x="275" y="355"/>
      <point x="225" y="425"/>
      <point x="165" y="425" type="curve" smooth="yes"/>
      <point x="105" y="425"/>
      <point x="72" y="383"/>
    </contour>
  </outline>
</glyph>
<glyph name="notequal" format="2">
  <advance width="460"/>
  <unicode hex="2260"/>
  <outline>
    <contour>
      <point x="120" y="100" type="line"/>
      <point x="190" y="100" type="line"/>
      <point x="229" y="210" type="line"/>
      <point x="390" y="210" type="line"/>
      <point x="390" y="270" type="line"/>
      <point x="251" y="270" type="line"/>
      <point x="279" y="350" type="line"/>
      <point x="390" y="350" type="line"/>
      <point x="390" y="410" type="line"/>
      <point x="301" y="410" type="line"/>
      <point x="340" y="520" type="line"/>
      <point x="270" y="520" type="line"/>
      <point x="231" y="410" type="line"/>
      <point x="70" y="410" type="line"/>
      <point x="70" y="350" type="line"/>
      <point x="209" y="350" type="line"/>
      <point x="181" y="270" type="line"/>
      <point x="70" y="270" type="line"/>
      <point x="70" y="210" type="line"/>
      <point x="159" y="210" type="line"/>
    </contour>
  </outline>
</glyph>
<glyph name="lessequal" format="2">
  <advance width="480"/>
  <unicode hex="2264"/>
  <outline>
    <contour>
      <point x="50" y="270" type="line"/>
      <point x="420" y="50" type="line"/>
      <point x="440" y="110" type="line"/>
      <point x="120" y="300" type="line"/>
      <point x="440" y="490" type="line"/>
      <point x="420" y="550" type="line"/>
      <point x="50" y="330" type="line"/>
    </contour>
    <contour>
      <point x="50" y="150" type="line"/>
      <point x="420" y="-70" type="line"/>
      <point x="430" y="-10" type="line"/>
      <point x="60" y="210" type="line"/>
    </contour>
  </outline>
</glyph>
<glyph name="greaterequal" format="2">
  <advance width="480"/>
  <unicode hex="2265"/>
  <outline>
    <contour>
      <point x="70" y="60" type="line"/>
      <point x="440" y="280" type="line"/>
      <point x="440" y="340" type="line"/>
      <point x="70" y="560" type="line"/>
      <point x="50" y="500" type="line"/>
      <point x="370" y="310" type="line"/>
      <point x="50" y="120" type="line"/>
    </contour>
    <contour>
      <point x="70" y="-70" type="line"/>
      <point x="440" y="150" type="line"/>
      <point x="430" y="210" type="line"/>
      <point x="60" y="-10" type="line"/>
    </contour>
  </outline>
</glyph>
